<svg width="36" height="36" viewBox="0 0 36 36" fill="none" xmlns="http://www.w3.org/2000/svg">
<rect width="36" height="36" rx="8" fill="#3A643B" fill-opacity="0.05"/>
<path opacity="0.4" d="M25.1238 18.5686V18.1834C25.1238 16.8863 25.1238 15.8467 25.0651 15.001H10.9325C10.8738 15.8467 10.8738 16.8863 10.8738 18.1834V18.5686C10.8738 21.8366 10.8738 23.4705 11.8129 24.4858C12.752 25.501 14.2634 25.501 17.2863 25.501H18.7113C21.7342 25.501 23.2456 25.501 24.1847 24.4858C25.1238 23.4705 25.1238 21.8366 25.1238 18.5686Z" fill="#3A643C"/>
<path d="M22.5 10.501V12.001M13.5 10.501V12.001" stroke="#3A643C" stroke-width="1.25" stroke-linecap="round" stroke-linejoin="round"/>
<path d="M10.8738 18.1824C10.8738 14.9145 10.8738 13.2805 11.8129 12.2652C12.752 11.25 14.2634 11.25 17.2863 11.25H18.7113C21.7342 11.25 23.2456 11.25 24.1847 12.2652C25.1238 13.2805 25.1238 14.9145 25.1238 18.1824V18.5676C25.1238 21.8356 25.1238 23.4695 24.1847 24.4848C23.2456 25.5 21.7342 25.5 18.7113 25.5H17.2863C14.2634 25.5 12.752 25.5 11.8129 24.4848C10.8738 23.4695 10.8738 21.8356 10.8738 18.5676V18.1824Z" stroke="#3A643C" stroke-width="1.25" stroke-linecap="round" stroke-linejoin="round"/>
<path d="M11.25 15.001H24.75" stroke="#3A643C" stroke-width="1.25" stroke-linecap="round" stroke-linejoin="round"/>
<path d="M16.05 21.8999L16.05 19.1603C16.05 19.0165 15.9475 18.8999 15.821 18.8999H15.3M18.7723 21.8999L19.7882 19.1618C19.8357 19.0338 19.7346 18.8999 19.5906 18.8999H18.3" stroke="#3A643C" stroke-width="1.25" stroke-linecap="round"/>
</svg>
