<svg width="36" height="36" viewBox="0 0 36 36" fill="none" xmlns="http://www.w3.org/2000/svg">
<rect width="36" height="36" rx="8" fill="#3A643B" fill-opacity="0.05"/>
<path opacity="0.4" d="M25.5012 17.676C25.5012 21.6384 22.1429 24.851 18.0012 24.851C17.5142 24.8517 17.0286 24.8066 16.5503 24.7169C16.206 24.6521 16.0338 24.6198 15.9136 24.6382C15.7934 24.6566 15.6231 24.7472 15.2825 24.9283C14.3188 25.4408 13.1952 25.6217 12.1146 25.4207C12.5253 24.9155 12.8058 24.3094 12.9296 23.6596C13.0046 23.2621 12.8187 22.876 12.5404 22.5933C11.2762 21.3096 10.5012 19.5798 10.5012 17.676C10.5012 13.7137 13.8596 10.501 18.0012 10.501C22.1429 10.501 25.5012 13.7137 25.5012 17.676Z" fill="#3A643C"/>
<path d="M25.5012 17.676C25.5012 21.6384 22.1429 24.851 18.0012 24.851C17.5142 24.8517 17.0286 24.8066 16.5503 24.7169C16.206 24.6521 16.0338 24.6198 15.9136 24.6382C15.7934 24.6566 15.6231 24.7471 15.2825 24.9283C14.3188 25.4408 13.1952 25.6217 12.1146 25.4207C12.5253 24.9155 12.8058 24.3094 12.9296 23.6596C13.0046 23.2621 12.8187 22.876 12.5404 22.5933C11.2762 21.3096 10.5012 19.5798 10.5012 17.676C10.5012 13.7137 13.8596 10.501 18.0012 10.501C22.1429 10.501 25.5012 13.7137 25.5012 17.676Z" stroke="#3A643C" stroke-width="1.25" stroke-linejoin="round"/>
<path d="M17.9978 18H18.0046M20.9945 18H21.0012M15.0012 18H15.0079" stroke="#3A643C" stroke-width="1.66667" stroke-linecap="round" stroke-linejoin="round"/>
</svg>
