<svg width="20" height="19" viewBox="0 0 20 19" fill="none" xmlns="http://www.w3.org/2000/svg">
<path opacity="0.4" d="M12 0H8C4.22876 0 2.34315 1.19209e-07 1.17157 1.17157C1.19209e-07 2.34315 0 4.22876 0 8V8.5C0 12.2712 1.19209e-07 14.1569 1.17157 15.3284C1.82475 15.9816 2.7987 16.3721 4.09881 16.5C3.86573 17.4342 3.7338 18.4317 4.31569 18.8651C4.806 19.2218 5.58729 18.8408 7.14987 18.0789C8.2465 17.5441 9.3562 16.9309 10.5546 16.655C10.9931 16.5551 11.4395 16.5125 12 16.5C15.7712 16.5 17.6569 16.5 18.8284 15.3284C20 14.1569 20 12.2712 20 8.5V8C20 4.22876 20 2.34315 18.8284 1.17157C17.6569 1.19209e-07 15.7712 0 12 0Z" fill="#3A643C"/>
</svg>
