<svg width="36" height="36" viewBox="0 0 36 36" fill="none" xmlns="http://www.w3.org/2000/svg">
<rect width="36" height="36" rx="8" fill="#3A643B" fill-opacity="0.05"/>
<path opacity="0.4" d="M10.5012 13.501C10.5012 12.4509 10.5012 11.9258 10.7056 11.5247C10.8853 11.1719 11.1722 10.8851 11.525 10.7053C11.9261 10.501 12.4511 10.501 13.5012 10.501C14.5513 10.501 15.0764 10.501 15.4775 10.7053C15.8303 10.8851 16.1171 11.1719 16.2969 11.5247C16.5012 11.9258 16.5012 12.4509 16.5012 13.501C16.5012 14.5511 16.5012 15.0761 16.2969 15.4772C16.1171 15.83 15.8303 16.1168 15.4775 16.2966C15.0764 16.501 14.5513 16.501 13.5012 16.501C12.4511 16.501 11.9261 16.501 11.525 16.2966C11.1722 16.1168 10.8853 15.83 10.7056 15.4772C10.5012 15.0761 10.5012 14.5511 10.5012 13.501Z" fill="#3A643C"/>
<path opacity="0.4" d="M19.5012 22.501C19.5012 21.4509 19.5012 20.9258 19.7056 20.5247C19.8854 20.1719 20.1722 19.8851 20.525 19.7054C20.9261 19.501 21.4511 19.501 22.5012 19.501C23.5513 19.501 24.0764 19.501 24.4775 19.7054C24.8303 19.8851 25.1171 20.1719 25.2968 20.5247C25.5012 20.9258 25.5012 21.4509 25.5012 22.501C25.5012 23.5511 25.5012 24.0761 25.2968 24.4772C25.1171 24.83 24.8303 25.1168 24.4775 25.2966C24.0764 25.501 23.5513 25.501 22.5012 25.501C21.4511 25.501 20.9261 25.501 20.525 25.2966C20.1722 25.1168 19.8854 24.83 19.7056 24.4772C19.5012 24.0761 19.5012 23.5511 19.5012 22.501Z" fill="#3A643C"/>
<path d="M10.5012 13.501C10.5012 12.4509 10.5012 11.9258 10.7056 11.5247C10.8853 11.1719 11.1722 10.8851 11.525 10.7053C11.9261 10.501 12.4511 10.501 13.5012 10.501C14.5513 10.501 15.0764 10.501 15.4775 10.7053C15.8303 10.8851 16.1171 11.1719 16.2969 11.5247C16.5012 11.9258 16.5012 12.4509 16.5012 13.501C16.5012 14.5511 16.5012 15.0761 16.2969 15.4772C16.1171 15.83 15.8303 16.1168 15.4775 16.2966C15.0764 16.501 14.5513 16.501 13.5012 16.501C12.4511 16.501 11.9261 16.501 11.525 16.2966C11.1722 16.1168 10.8853 15.83 10.7056 15.4772C10.5012 15.0761 10.5012 14.5511 10.5012 13.501Z" stroke="#3A643C" stroke-width="1.25"/>
<path d="M10.5012 22.501C10.5012 21.4509 10.5012 20.9258 10.7056 20.5247C10.8853 20.1719 11.1722 19.8851 11.525 19.7054C11.9261 19.501 12.4511 19.501 13.5012 19.501C14.5513 19.501 15.0764 19.501 15.4775 19.7054C15.8303 19.8851 16.1171 20.1719 16.2969 20.5247C16.5012 20.9258 16.5012 21.4509 16.5012 22.501C16.5012 23.5511 16.5012 24.0761 16.2969 24.4772C16.1171 24.83 15.8303 25.1168 15.4775 25.2966C15.0764 25.501 14.5513 25.501 13.5012 25.501C12.4511 25.501 11.9261 25.501 11.525 25.2966C11.1722 25.1168 10.8853 24.83 10.7056 24.4772C10.5012 24.0761 10.5012 23.5511 10.5012 22.501Z" stroke="#3A643C" stroke-width="1.25"/>
<path d="M19.5012 22.501C19.5012 21.4509 19.5012 20.9258 19.7056 20.5247C19.8854 20.1719 20.1722 19.8851 20.525 19.7054C20.9261 19.501 21.4511 19.501 22.5012 19.501C23.5513 19.501 24.0764 19.501 24.4775 19.7054C24.8303 19.8851 25.1171 20.1719 25.2968 20.5247C25.5012 20.9258 25.5012 21.4509 25.5012 22.501C25.5012 23.5511 25.5012 24.0761 25.2968 24.4772C25.1171 24.83 24.8303 25.1168 24.4775 25.2966C24.0764 25.501 23.5513 25.501 22.5012 25.501C21.4511 25.501 20.9261 25.501 20.525 25.2966C20.1722 25.1168 19.8854 24.83 19.7056 24.4772C19.5012 24.0761 19.5012 23.5511 19.5012 22.501Z" stroke="#3A643C" stroke-width="1.25"/>
<g clip-path="url(#clip0_31422_3641)">
<path d="M20.2529 15.8471C19.2741 14.8683 19.2741 13.2814 20.2529 12.3026C21.582 10.9735 24.905 11.195 24.905 11.195C24.905 11.195 25.1265 14.5179 23.7973 15.8471C23.1411 16.5033 22.2115 16.7196 21.375 16.4958" stroke="#3A643C" stroke-width="1.5" stroke-linecap="round" stroke-linejoin="round"/>
<path d="M19.1812 16.9187L23.2312 12.8687" stroke="#3A643C" stroke-width="1.5" stroke-linecap="round"/>
</g>
<defs>
<clipPath id="clip0_31422_3641">
<rect width="8.1" height="8.1" fill="white" transform="translate(18 10)"/>
</clipPath>
</defs>
</svg>
