<svg width="15" height="19" viewBox="0 0 15 19" fill="none" xmlns="http://www.w3.org/2000/svg">
<path d="M8.25 17V16.5833C8.25 14.2263 8.25 13.0478 8.98225 12.3156C9.7145 11.5833 10.893 11.5833 13.25 11.5833H13.6667M14.0833 10.2026V7.41667C14.0833 4.27397 14.0833 2.70263 13.107 1.72631C12.1307 0.75 10.5593 0.75 7.41667 0.75C4.27397 0.75 2.70262 0.75 1.72631 1.72631C0.75 2.70262 0.75 4.27397 0.75 7.41667V11.2035C0.75 13.9076 0.75 15.2597 1.48839 16.1755C1.63757 16.3605 1.80609 16.5291 1.99111 16.6783C2.90692 17.4166 4.25902 17.4166 6.96317 17.4166C7.55117 17.4166 7.84508 17.4166 8.11433 17.3216C8.17033 17.3019 8.22517 17.2791 8.27875 17.2535C8.53633 17.1304 8.74417 16.9225 9.15992 16.5068L13.107 12.5596C13.5887 12.078 13.8296 11.8371 13.9565 11.5308C14.0833 11.2245 14.0833 10.8839 14.0833 10.2026Z" stroke="#3A643C" stroke-width="1.5" stroke-linecap="round" stroke-linejoin="round"/>
</svg>
