<svg width="20" height="20" viewBox="0 0 20 20" fill="none" xmlns="http://www.w3.org/2000/svg">
<path d="M2.08337 9.99967C2.08337 6.26772 2.08337 4.40175 3.24274 3.24237C4.40212 2.08301 6.26809 2.08301 10 2.08301C13.732 2.08301 15.598 2.08301 16.7574 3.24237C17.9167 4.40175 17.9167 6.26772 17.9167 9.99967C17.9167 13.7316 17.9167 15.5976 16.7574 16.757C15.598 17.9163 13.732 17.9163 10 17.9163C6.26809 17.9163 4.40212 17.9163 3.24274 16.757C2.08337 15.5976 2.08337 13.7316 2.08337 9.99967Z" stroke="#3A643C" stroke-width="1.5"/>
<path d="M13.75 7.5C14.4404 7.5 15 6.94036 15 6.25C15 5.55964 14.4404 5 13.75 5C13.0596 5 12.5 5.55964 12.5 6.25C12.5 6.94036 13.0596 7.5 13.75 7.5Z" stroke="#3A643C" stroke-width="1.5"/>
<path opacity="0.4" fill-rule="evenodd" clip-rule="evenodd" d="M2.08337 9.99967C2.08337 6.26772 2.08337 4.40175 3.24274 3.24237C4.40212 2.08301 6.26809 2.08301 10 2.08301C13.732 2.08301 15.598 2.08301 16.7574 3.24237C17.9167 4.40175 17.9167 6.26772 17.9167 9.99967C17.9167 11.6678 17.9167 12.9631 17.8132 13.9891C16.9323 13.5293 16.0233 13.2963 15.1095 13.2973C13.7974 13.2917 12.4975 13.7633 11.276 14.6854L9.89687 13.6115C8.04777 12.3104 5.72612 11.6218 3.34617 11.6686C3.06357 11.6679 2.78122 11.6769 2.49976 11.6956H2.08854C2.08337 11.1773 2.08337 10.6138 2.08337 9.99967ZM13.75 7.49967C14.4404 7.49967 15 6.94003 15 6.24967C15 5.55932 14.4404 4.99967 13.75 4.99967C13.0597 4.99967 12.5 5.55932 12.5 6.24967C12.5 6.94003 13.0597 7.49967 13.75 7.49967Z" fill="#3A643C"/>
<path d="M13.3333 18.3336C12.8171 16.4794 11.6121 14.8187 9.89708 13.6121C8.04801 12.3111 5.72636 11.6225 3.34641 11.6692C3.06382 11.6686 2.78147 11.6776 2.5 11.6962" stroke="#3A643C" stroke-width="1.5" stroke-linejoin="round"/>
<path d="M10.8334 14.9996C12.2513 13.8941 13.7788 13.327 15.3219 13.3331C16.1969 13.3321 17.0677 13.5176 17.9167 13.8844" stroke="#3A643C" stroke-width="1.5" stroke-linejoin="round"/>
</svg>
