<svg width="56" height="56" viewBox="0 0 56 56" fill="none" xmlns="http://www.w3.org/2000/svg">
<rect x="0.5" y="0.5" width="55" height="55" rx="11.5" stroke="#E0E0E0"/>
<path opacity="0.4" d="M28.0013 41.3327C35.3651 41.3327 41.3346 35.3631 41.3346 27.9993C41.3346 20.6356 35.3651 14.666 28.0013 14.666C20.6375 14.666 14.668 20.6356 14.668 27.9993C14.668 35.3631 20.6375 41.3327 28.0013 41.3327Z" fill="#3A643B"/>
<path d="M18.7319 23.4748L15.3851 23.271C17.7841 16.939 24.672 13.3326 31.3874 15.1257C38.54 17.0355 42.7885 24.3474 40.8766 31.4574C38.9649 38.5674 31.6168 42.7828 24.4642 40.8731C19.1536 39.455 15.4439 35.0588 14.668 29.9786" stroke="#3A643B" stroke-width="2" stroke-linecap="round" stroke-linejoin="round"/>
<path d="M28 22.666V27.9993L30.6667 30.666" stroke="#3A643B" stroke-width="2" stroke-linecap="round" stroke-linejoin="round"/>
</svg>
