<svg width="36" height="36" viewBox="0 0 36 36" fill="none" xmlns="http://www.w3.org/2000/svg">
<rect width="36" height="36" rx="8" fill="#3A643C"/>
<path opacity="0.4" d="M12.5 22.4856V16.2806C12.5 13.5556 12.5 12.1931 13.3787 11.3466C14.2574 10.5 15.6716 10.5 18.5 10.5C21.3284 10.5 22.7427 10.5 23.6213 11.3466C24.5 12.1931 24.5 13.5556 24.5 16.2806V22.4856C24.5 24.215 24.5 25.0797 23.9204 25.3892C22.7979 25.9886 20.6924 23.9889 19.6925 23.3868C19.1126 23.0376 18.8226 22.863 18.5 22.863C18.1774 22.863 17.8874 23.0376 17.3075 23.3868C16.3076 23.9889 14.2021 25.9886 13.0796 25.3892C12.5 25.0797 12.5 24.215 12.5 22.4856Z" fill="#FFF7EA"/>
<path d="M12.5 22.4856V16.2806C12.5 13.5556 12.5 12.1931 13.3787 11.3466C14.2574 10.5 15.6716 10.5 18.5 10.5C21.3284 10.5 22.7427 10.5 23.6213 11.3466C24.5 12.1931 24.5 13.5556 24.5 16.2806V22.4856C24.5 24.215 24.5 25.0797 23.9204 25.3892C22.7979 25.9886 20.6924 23.9889 19.6925 23.3868C19.1126 23.0376 18.8227 22.863 18.5 22.863C18.1773 22.863 17.8874 23.0376 17.3075 23.3868C16.3076 23.9889 14.2021 25.9886 13.0796 25.3892C12.5 25.0797 12.5 24.215 12.5 22.4856Z" stroke="#FFF7EA" stroke-width="1.5" stroke-linecap="round" stroke-linejoin="round"/>
</svg>
