<svg width="36" height="36" viewBox="0 0 36 36" fill="none" xmlns="http://www.w3.org/2000/svg">
<rect width="36" height="36" rx="8" fill="#3A643B" fill-opacity="0.05"/>
<path opacity="0.4" d="M14.8749 25.0118L14.4861 24.4942C14.1445 24.0393 13.4191 24.076 13.1305 24.5626C12.7255 25.2456 11.6262 24.9734 11.6262 24.1902V11.8118C11.6262 11.0285 12.7255 10.7564 13.1305 11.4393C13.4191 11.926 14.1445 11.9626 14.4861 11.5078L14.8749 10.9901C15.3647 10.3379 16.3877 10.3379 16.8776 10.9901L16.9387 11.0715C17.4585 11.7636 18.5439 11.7636 19.0637 11.0715L19.1249 10.9901C19.6147 10.3379 20.6377 10.3379 21.1276 10.9901L21.5164 11.5078C21.858 11.9626 22.5834 11.926 22.8719 11.4393C23.2769 10.7564 24.3762 11.0285 24.3762 11.8118V24.1902C24.3762 24.9734 23.2769 25.2456 22.8719 24.5626C22.5834 24.076 21.858 24.0393 21.5164 24.4942L21.1276 25.0118C20.6377 25.664 19.6147 25.664 19.1249 25.0118L19.0637 24.9304C18.5439 24.2384 17.4585 24.2384 16.9387 24.9304L16.8776 25.0118C16.3877 25.664 15.3647 25.664 14.8749 25.0118Z" fill="#3A643C"/>
<path d="M14.8749 25.0118L14.4861 24.4942C14.1445 24.0393 13.4191 24.076 13.1305 24.5626C12.7255 25.2456 11.6262 24.9734 11.6262 24.1902V11.8118C11.6262 11.0285 12.7255 10.7564 13.1305 11.4393C13.4191 11.926 14.1445 11.9626 14.4861 11.5078L14.8749 10.9901C15.3647 10.3379 16.3877 10.3379 16.8776 10.9901L16.9387 11.0715C17.4585 11.7636 18.5439 11.7636 19.0637 11.0715L19.1249 10.9901C19.6147 10.3379 20.6377 10.3379 21.1276 10.9901L21.5164 11.5078C21.858 11.9626 22.5834 11.926 22.8719 11.4393C23.2769 10.7564 24.3762 11.0285 24.3762 11.8118V24.1902C24.3762 24.9734 23.2769 25.2456 22.8719 24.5626C22.5834 24.076 21.858 24.0393 21.5164 24.4942L21.1276 25.0118C20.6377 25.664 19.6147 25.664 19.1249 25.0118L19.0637 24.9304C18.5439 24.2384 17.4585 24.2384 16.9387 24.9304L16.8776 25.0118C16.3877 25.664 15.3647 25.664 14.8749 25.0118Z" stroke="#3A643C" stroke-width="1.25" stroke-linejoin="round"/>
<path d="M20.25 15.75L15.75 20.25" stroke="#3A643C" stroke-width="1.25" stroke-linecap="round" stroke-linejoin="round"/>
<path d="M20.25 20.25H20.2433M15.7567 15.75H15.75" stroke="#3A643C" stroke-width="1.66667" stroke-linecap="round" stroke-linejoin="round"/>
</svg>
