<svg width="36" height="36" viewBox="0 0 36 36" fill="none" xmlns="http://www.w3.org/2000/svg">
<rect width="36" height="36" rx="8" fill="#3A643B" fill-opacity="0.05"/>
<path opacity="0.4" d="M11.7 15.8833H20.0681C22.0405 15.8833 23.0267 15.8833 23.6394 16.4961C24.2522 17.1089 24.2522 18.0951 24.2522 20.0675V20.7649C24.2522 22.7373 24.2522 23.7236 23.6394 24.3363C23.0267 24.9491 22.0405 24.9491 20.0681 24.9491H15.884C13.9116 24.9491 12.9254 24.9491 12.3127 24.3363C11.7 23.7236 11.7 22.7373 11.7 20.7649V15.8833Z" fill="#3A643C"/>
<path d="M11.7 15.8833H20.0681C22.0405 15.8833 23.0267 15.8833 23.6394 16.4961C24.2522 17.1089 24.2522 18.0951 24.2522 20.0675V20.7649C24.2522 22.7373 24.2522 23.7236 23.6394 24.3363C23.0267 24.9491 22.0405 24.9491 20.0681 24.9491H15.884C13.9116 24.9491 12.9254 24.9491 12.3127 24.3363C11.7 23.7236 11.7 22.7373 11.7 20.7649V15.8833Z" stroke="#3A643C" stroke-linecap="square" stroke-linejoin="round"/>
<path d="M20.0681 15.8833V12.8232C20.0681 12.203 19.5653 11.7002 18.9452 11.7002C18.7666 11.7002 18.5906 11.7428 18.4317 11.8245L12.2315 15.0122C11.9051 15.18 11.7 15.5162 11.7 15.8833" stroke="#3A643C" stroke-linecap="round" stroke-linejoin="round"/>
</svg>
