<svg width="17" height="22" viewBox="0 0 17 22" fill="none" xmlns="http://www.w3.org/2000/svg">
<path d="M8.28679 0C6.0898 0.00270323 3.98353 0.914155 2.43001 2.53442C0.876502 4.15468 0.00260067 6.35146 8.8163e-06 8.64286C-0.00262253 10.5154 0.583836 12.3371 1.66942 13.8286C1.66942 13.8286 1.89542 14.1389 1.93234 14.1837L8.28679 22L14.6443 14.1798C14.6774 14.1381 14.9042 13.8286 14.9042 13.8286L14.9049 13.8262C15.99 12.3354 16.5762 10.5145 16.5736 8.64286C16.571 6.35146 15.6971 4.15468 14.1436 2.53442C12.5901 0.914155 10.4838 0.00270323 8.28679 0ZM8.28679 11.7857C7.6908 11.7857 7.1082 11.6014 6.61265 11.256C6.1171 10.9107 5.73087 10.4199 5.5028 9.84558C5.27472 9.27129 5.21505 8.63937 5.33132 8.02972C5.44759 7.42006 5.73459 6.86006 6.15601 6.42052C6.57744 5.98098 7.11437 5.68166 7.69891 5.56039C8.28345 5.43912 8.88934 5.50136 9.43996 5.73923C9.99058 5.97711 10.4612 6.37994 10.7923 6.89678C11.1234 7.41362 11.3002 8.02126 11.3002 8.64286C11.2992 9.47607 10.9814 10.2749 10.4165 10.864C9.85157 11.4532 9.08568 11.7847 8.28679 11.7857Z" fill="#38653D"/>
</svg>
