<svg width="84" height="99" viewBox="0 0 84 99" fill="none" xmlns="http://www.w3.org/2000/svg">
<circle cx="42" cy="41" r="32" fill="#EAF2EA"/>
<path d="M22.168 89.538C22.624 89.61 23.038 89.796 23.41 90.096C23.794 90.396 24.094 90.768 24.31 91.212C24.538 91.656 24.652 92.13 24.652 92.634C24.652 93.27 24.49 93.846 24.166 94.362C23.842 94.866 23.368 95.268 22.744 95.568C22.132 95.856 21.406 96 20.566 96H15.886V83.454H20.386C21.238 83.454 21.964 83.598 22.564 83.886C23.164 84.162 23.614 84.54 23.914 85.02C24.214 85.5 24.364 86.04 24.364 86.64C24.364 87.384 24.16 88.002 23.752 88.494C23.356 88.974 22.828 89.322 22.168 89.538ZM17.524 88.872H20.278C21.046 88.872 21.64 88.692 22.06 88.332C22.48 87.972 22.69 87.474 22.69 86.838C22.69 86.202 22.48 85.704 22.06 85.344C21.64 84.984 21.034 84.804 20.242 84.804H17.524V88.872ZM20.422 94.65C21.238 94.65 21.874 94.458 22.33 94.074C22.786 93.69 23.014 93.156 23.014 92.472C23.014 91.776 22.774 91.23 22.294 90.834C21.814 90.426 21.172 90.222 20.368 90.222H17.524V94.65H20.422ZM31.2271 96.162C30.3031 96.162 29.4631 95.952 28.7071 95.532C27.9631 95.112 27.3751 94.518 26.9431 93.75C26.5231 92.97 26.3131 92.07 26.3131 91.05C26.3131 90.042 26.5291 89.154 26.9611 88.386C27.4051 87.606 28.0051 87.012 28.7611 86.604C29.5171 86.184 30.3631 85.974 31.2991 85.974C32.2351 85.974 33.0811 86.184 33.8371 86.604C34.5931 87.012 35.1871 87.6 35.6191 88.368C36.0631 89.136 36.2851 90.03 36.2851 91.05C36.2851 92.07 36.0571 92.97 35.6011 93.75C35.1571 94.518 34.5511 95.112 33.7831 95.532C33.0151 95.952 32.1631 96.162 31.2271 96.162ZM31.2271 94.722C31.8151 94.722 32.3671 94.584 32.8831 94.308C33.3991 94.032 33.8131 93.618 34.1251 93.066C34.4491 92.514 34.6111 91.842 34.6111 91.05C34.6111 90.258 34.4551 89.586 34.1431 89.034C33.8311 88.482 33.4231 88.074 32.9191 87.81C32.4151 87.534 31.8691 87.396 31.2811 87.396C30.6811 87.396 30.1291 87.534 29.6251 87.81C29.1331 88.074 28.7371 88.482 28.4371 89.034C28.1371 89.586 27.9871 90.258 27.9871 91.05C27.9871 91.854 28.1311 92.532 28.4191 93.084C28.7191 93.636 29.1151 94.05 29.6071 94.326C30.0991 94.59 30.6391 94.722 31.2271 94.722ZM43.2447 85.956C44.4447 85.956 45.4167 86.322 46.1607 87.054C46.9047 87.774 47.2767 88.818 47.2767 90.186V96H45.6567V90.42C45.6567 89.436 45.4107 88.686 44.9187 88.17C44.4267 87.642 43.7547 87.378 42.9027 87.378C42.0387 87.378 41.3487 87.648 40.8327 88.188C40.3287 88.728 40.0767 89.514 40.0767 90.546V96H38.4387V86.136H40.0767V87.54C40.4007 87.036 40.8387 86.646 41.3907 86.37C41.9547 86.094 42.5727 85.956 43.2447 85.956ZM58.9524 90.69C58.9524 91.002 58.9344 91.332 58.8984 91.68H51.0144C51.0744 92.652 51.4044 93.414 52.0044 93.966C52.6164 94.506 53.3544 94.776 54.2184 94.776C54.9264 94.776 55.5144 94.614 55.9824 94.29C56.4624 93.954 56.7984 93.51 56.9904 92.958H58.7544C58.4904 93.906 57.9624 94.68 57.1704 95.28C56.3784 95.868 55.3944 96.162 54.2184 96.162C53.2824 96.162 52.4424 95.952 51.6984 95.532C50.9664 95.112 50.3904 94.518 49.9704 93.75C49.5504 92.97 49.3404 92.07 49.3404 91.05C49.3404 90.03 49.5444 89.136 49.9524 88.368C50.3604 87.6 50.9304 87.012 51.6624 86.604C52.4064 86.184 53.2584 85.974 54.2184 85.974C55.1544 85.974 55.9824 86.178 56.7024 86.586C57.4224 86.994 57.9744 87.558 58.3584 88.278C58.7544 88.986 58.9524 89.79 58.9524 90.69ZM57.2604 90.348C57.2604 89.724 57.1224 89.19 56.8464 88.746C56.5704 88.29 56.1924 87.948 55.7124 87.72C55.2444 87.48 54.7224 87.36 54.1464 87.36C53.3184 87.36 52.6104 87.624 52.0224 88.152C51.4464 88.68 51.1164 89.412 51.0324 90.348H57.2604ZM64.6065 96.162C63.8505 96.162 63.1725 96.036 62.5725 95.784C61.9725 95.52 61.4985 95.16 61.1505 94.704C60.8025 94.236 60.6105 93.702 60.5745 93.102H62.2665C62.3145 93.594 62.5425 93.996 62.9505 94.308C63.3705 94.62 63.9165 94.776 64.5885 94.776C65.2125 94.776 65.7045 94.638 66.0645 94.362C66.4245 94.086 66.6045 93.738 66.6045 93.318C66.6045 92.886 66.4125 92.568 66.0285 92.364C65.6445 92.148 65.0505 91.938 64.2465 91.734C63.5145 91.542 62.9145 91.35 62.4465 91.158C61.9905 90.954 61.5945 90.66 61.2585 90.276C60.9345 89.88 60.7725 89.364 60.7725 88.728C60.7725 88.224 60.9225 87.762 61.2225 87.342C61.5225 86.922 61.9485 86.592 62.5005 86.352C63.0525 86.1 63.6825 85.974 64.3905 85.974C65.4825 85.974 66.3645 86.25 67.0365 86.802C67.7085 87.354 68.0685 88.11 68.1165 89.07H66.4785C66.4425 88.554 66.2325 88.14 65.8485 87.828C65.4765 87.516 64.9725 87.36 64.3365 87.36C63.7485 87.36 63.2805 87.486 62.9325 87.738C62.5845 87.99 62.4105 88.32 62.4105 88.728C62.4105 89.052 62.5125 89.322 62.7165 89.538C62.9325 89.742 63.1965 89.91 63.5085 90.042C63.8325 90.162 64.2765 90.3 64.8405 90.456C65.5485 90.648 66.1245 90.84 66.5685 91.032C67.0125 91.212 67.3905 91.488 67.7025 91.86C68.0265 92.232 68.1945 92.718 68.2065 93.318C68.2065 93.858 68.0565 94.344 67.7565 94.776C67.4565 95.208 67.0305 95.55 66.4785 95.802C65.9385 96.042 65.3145 96.162 64.6065 96.162Z" fill="#2E2F2E"/>
<rect width="84" height="84" rx="42" fill="white"/>
<path d="M42 74C59.6731 74 74 59.6731 74 42C74 24.3269 59.6731 10 42 10C24.3269 10 10 24.3269 10 42C10 59.6731 24.3269 74 42 74Z" fill="#E0E8E2"/>
<path d="M32.1758 22.252C32.1797 22.2506 32.2431 22.2288 32.4902 22.3887C36.5616 25.0244 40.6541 27.5386 44.708 30.1865C46.7206 31.5011 48.8112 32.5534 50.5557 34.1494C51.9542 35.4289 52.8865 37.0947 53.3896 39.0137C53.9861 41.2885 53.625 43.5253 53.166 45.8223C52.646 48.4244 52.156 51.0351 51.6514 53.6377C51.0762 56.6044 50.4828 59.5722 49.9385 62.5488C49.9048 62.7331 49.8672 62.7536 49.875 62.748C49.8811 62.7439 49.8808 62.7473 49.8574 62.749C49.8309 62.751 49.7902 62.7491 49.7246 62.7393C47.9548 62.4724 46.1852 62.2021 44.3506 61.9199C44.2471 61.8134 44.2044 61.7082 44.1904 61.5957C44.1726 61.4518 44.1966 61.2971 44.2275 61.0986C44.6783 58.2078 45.1387 55.3183 45.6084 52.4307C45.8672 50.8392 46.6135 49.5081 47.6699 48.3232C48.0608 47.8848 48.2974 47.4931 48.2695 47.0635C48.2423 46.6446 47.9656 46.2665 47.5752 45.8467C46.5686 44.7646 45.2362 44.4373 44.043 44.0654C43.2626 43.8222 42.5219 44.1367 42.0332 44.8369C41.7886 45.1874 41.6423 45.5561 41.6172 45.9424C41.5921 46.3294 41.6894 46.7154 41.9004 47.0967C41.9815 47.2433 42.0668 47.3864 42.1504 47.5254C42.2347 47.6656 42.3171 47.8015 42.3955 47.9395C42.8841 48.7996 43.0797 49.7143 42.9209 50.6953C42.3827 54.0171 41.8604 57.3378 41.2764 60.6475C41.22 60.967 41.1948 61.18 41.0049 61.3584C39.9663 61.3997 38.9965 61.1841 37.9688 61.0195C37.4956 60.9438 36.9873 60.8824 36.5283 60.8145C36.3975 60.7951 36.3264 60.7725 36.2891 60.7559C36.2912 60.7427 36.2948 60.723 36.3018 60.6963C36.3105 60.6625 36.3215 60.6243 36.3359 60.5771C36.3499 60.5313 36.3668 60.4783 36.3828 60.4209C37.2381 57.3592 38.018 54.2463 37.8398 50.959C37.823 50.6474 37.7743 50.3427 37.7324 50.0557C37.6899 49.7642 37.654 49.4862 37.6514 49.2031C37.6312 47.0023 38.327 45.0033 39.3125 43.0938C39.3878 42.9479 39.4395 42.8167 39.458 42.6973C39.4776 42.5707 39.4616 42.4444 39.3867 42.335C39.3183 42.2352 39.221 42.18 39.1504 42.1465C39.0895 42.1177 38.9894 42.0799 38.9414 42.0596C37.5113 41.4522 36.1014 40.8095 34.7617 40.0381C32.0636 38.4845 29.4306 36.8642 27.1221 34.7344C26.5728 34.2276 26.0728 33.7209 25.5195 33.2002C25.3391 33.0303 25.2696 32.9149 25.2539 32.8174C25.2396 32.7283 25.262 32.5935 25.4277 32.3623C26.224 31.2517 26.9532 30.0534 27.7334 28.8955C27.9131 28.9045 28.0567 28.9845 28.2393 29.1045C31.8081 31.4499 35.3741 33.8038 38.957 36.1289C40.1435 36.8989 40.976 37.9101 41.2891 39.3467C41.4108 39.905 41.6321 40.4794 42.1191 40.8955C43.2033 41.8213 44.8146 41.4115 45.416 40.0566C45.8037 39.1831 46.195 38.3785 46.8184 37.707C47.4711 37.0038 47.4022 36.1316 47.0957 35.3701C46.7762 34.5769 46.1298 34.1931 45.3389 34.1309C44.8939 34.0959 44.4786 34.1927 44.0908 34.3027C43.2018 34.555 42.3767 34.46 41.5801 33.9453C37.7012 31.4392 33.8762 28.8729 30.001 26.3506C29.869 26.2647 29.7661 26.1882 29.6846 26.0645C30.4324 24.8524 31.2033 23.7022 31.959 22.5215C32.022 22.423 32.0681 22.3556 32.1094 22.3086C32.1492 22.2632 32.1699 22.254 32.1758 22.252Z" fill="#FDF8E5" stroke="#3A643C" stroke-width="0.5"/>
<path d="M29.436 26.2842C30.6788 26.862 31.7315 27.7008 32.9048 28.4668C35.7401 30.318 38.5512 32.211 41.3677 34.0996C42.2471 34.6893 43.1707 34.7437 44.1138 34.4023C45.0922 34.0482 45.9949 34.283 46.4907 34.9453L46.5845 35.083C46.8625 35.5369 46.9635 36.0154 46.897 36.4834C46.8302 36.9528 46.5919 37.4287 46.1636 37.8691C45.5762 38.4731 45.3274 39.2514 45.0552 39.9307C44.7427 40.7102 44.0218 41.1877 43.2778 41.1465C42.8577 41.1231 42.4682 41.0196 42.1724 40.8271C41.8835 40.6393 41.6766 40.3626 41.6118 39.9609C41.1604 37.1593 39.1299 35.9592 37.2349 34.7314C34.2394 32.7907 31.2803 30.7899 28.3032 28.8086C28.2132 28.7487 28.1298 28.673 28.0278 28.5742C28.4721 27.7944 28.9352 27.0473 29.436 26.2842Z" fill="#E0E8E2" stroke="#3A643C" stroke-width="0.5"/>
<path d="M43.395 44.3037C45.2127 44.6043 46.8441 45.1841 47.9907 46.6279C48.1601 46.8412 48.2607 47.0745 48.2729 47.2852C48.2844 47.4853 48.2184 47.6799 48.0239 47.8496C46.0039 49.611 45.3542 51.9317 45.0181 54.3799C44.6783 56.8543 44.2353 59.3083 43.8267 61.8467C42.9433 61.7667 42.0572 61.6417 41.1206 61.501C41.6958 57.8561 42.3484 54.231 42.9565 50.5879C43.1688 49.3158 42.5964 48.2525 41.9272 47.2959C41.5374 46.7386 41.4506 46.141 41.5972 45.6289C41.744 45.1165 42.1308 44.6674 42.729 44.4189C42.9719 44.3181 43.1916 44.2702 43.395 44.3037Z" fill="#E0E8E2" stroke="#3A643C" stroke-width="0.5"/>
<path d="M56.6151 37.1046C57.4842 36.7897 58.2917 36.4781 59.1014 36.1732C59.3851 36.0664 59.6891 36.0523 59.7892 36.4208C59.8825 36.7647 59.855 37.1135 59.4301 37.2513C58.5858 37.525 57.7465 37.8177 56.9085 38.1135C56.4926 38.2603 55.9954 38.5645 55.7981 37.8985C55.6086 37.2589 56.2015 37.267 56.6151 37.1046Z" fill="#3A643C"/>
<path d="M55.5533 34.1023C56.2616 33.4874 56.9367 32.9276 57.5799 32.3249C57.8681 32.0549 58.0609 32.0918 58.3047 32.369C58.5813 32.6834 58.4956 32.9395 58.2417 33.1749C57.3762 33.9772 56.5136 34.784 55.629 35.559C55.4508 35.7151 55.1744 35.7137 54.9908 35.4828C54.8152 35.2619 54.8181 34.9882 54.9658 34.7652C55.1189 34.534 55.3244 34.3465 55.5533 34.1023Z" fill="#3A643C"/>
<path d="M57.8737 41.2277C57.3747 41.3287 56.9934 41.0442 56.5688 41.0465C56.2375 41.0482 56.2323 40.738 56.2159 40.4508C56.1947 40.0796 56.398 40.0592 56.6393 40.083C57.7389 40.1913 58.8387 40.2976 59.9371 40.4193C60.269 40.4561 60.2692 40.7423 60.2845 41.0288C60.3047 41.4075 60.0896 41.3873 59.8546 41.3938C59.2113 41.4117 58.5724 41.3862 57.8737 41.2277Z" fill="#3A643C"/>
<path d="M49.0298 39.6934C49.0635 39.6927 49.181 39.7093 49.3511 39.9316C49.8134 40.5361 50.2478 41.1623 50.606 41.8252C50.7768 42.1415 50.7495 42.3535 50.7007 42.4531C50.6591 42.5379 50.5517 42.6451 50.2837 42.6504C49.5864 42.664 48.924 42.6772 48.2769 42.6045C47.8532 42.5569 47.7418 42.4241 47.7046 42.3428C47.6504 42.2238 47.6278 41.9571 47.8237 41.4453C48.1676 40.8494 48.3891 40.3805 48.7046 39.9482C48.8725 39.7182 48.9932 39.6942 49.0298 39.6934Z" fill="#E0E8E2" stroke="#3A643C"/>
</svg>
