<svg width="84" height="102" viewBox="0 0 84 102" fill="none" xmlns="http://www.w3.org/2000/svg">
<circle cx="42" cy="42" r="32" fill="#EAF2EA"/>
<path d="M5.292 84.454C6.66 84.454 7.842 84.712 8.838 85.228C9.846 85.732 10.614 86.458 11.142 87.406C11.682 88.354 11.952 89.47 11.952 90.754C11.952 92.038 11.682 93.154 11.142 94.102C10.614 95.038 9.846 95.758 8.838 96.262C7.842 96.754 6.66 97 5.292 97H1.386V84.454H5.292ZM5.292 95.65C6.912 95.65 8.148 95.224 9 94.372C9.852 93.508 10.278 92.302 10.278 90.754C10.278 89.194 9.846 87.976 8.982 87.1C8.13 86.224 6.9 85.786 5.292 85.786H3.024V95.65H5.292ZM14.9586 85.534C14.6466 85.534 14.3826 85.426 14.1666 85.21C13.9506 84.994 13.8426 84.73 13.8426 84.418C13.8426 84.106 13.9506 83.842 14.1666 83.626C14.3826 83.41 14.6466 83.302 14.9586 83.302C15.2586 83.302 15.5106 83.41 15.7146 83.626C15.9306 83.842 16.0386 84.106 16.0386 84.418C16.0386 84.73 15.9306 84.994 15.7146 85.21C15.5106 85.426 15.2586 85.534 14.9586 85.534ZM15.7506 87.136V97H14.1126V87.136H15.7506ZM22.6103 86.974C23.4623 86.974 24.2063 87.16 24.8423 87.532C25.4903 87.904 25.9703 88.372 26.2823 88.936V87.136H27.9383V97.216C27.9383 98.116 27.7463 98.914 27.3623 99.61C26.9783 100.318 26.4263 100.87 25.7063 101.266C24.9983 101.662 24.1703 101.86 23.2223 101.86C21.9263 101.86 20.8463 101.554 19.9823 100.942C19.1183 100.33 18.6083 99.496 18.4523 98.44H20.0723C20.2523 99.04 20.6243 99.52 21.1883 99.88C21.7523 100.252 22.4303 100.438 23.2223 100.438C24.1223 100.438 24.8543 100.156 25.4183 99.592C25.9943 99.028 26.2823 98.236 26.2823 97.216V95.146C25.9583 95.722 25.4783 96.202 24.8423 96.586C24.2063 96.97 23.4623 97.162 22.6103 97.162C21.7343 97.162 20.9363 96.946 20.2163 96.514C19.5083 96.082 18.9503 95.476 18.5423 94.696C18.1343 93.916 17.9303 93.028 17.9303 92.032C17.9303 91.024 18.1343 90.142 18.5423 89.386C18.9503 88.618 19.5083 88.024 20.2163 87.604C20.9363 87.184 21.7343 86.974 22.6103 86.974ZM26.2823 92.05C26.2823 91.306 26.1323 90.658 25.8323 90.106C25.5323 89.554 25.1243 89.134 24.6083 88.846C24.1043 88.546 23.5463 88.396 22.9343 88.396C22.3223 88.396 21.7643 88.54 21.2603 88.828C20.7563 89.116 20.3543 89.536 20.0543 90.088C19.7543 90.64 19.6043 91.288 19.6043 92.032C19.6043 92.788 19.7543 93.448 20.0543 94.012C20.3543 94.564 20.7563 94.99 21.2603 95.29C21.7643 95.578 22.3223 95.722 22.9343 95.722C23.5463 95.722 24.1043 95.578 24.6083 95.29C25.1243 94.99 25.5323 94.564 25.8323 94.012C26.1323 93.448 26.2823 92.794 26.2823 92.05ZM39.7063 91.69C39.7063 92.002 39.6883 92.332 39.6523 92.68H31.7683C31.8283 93.652 32.1583 94.414 32.7583 94.966C33.3703 95.506 34.1083 95.776 34.9723 95.776C35.6803 95.776 36.2683 95.614 36.7363 95.29C37.2163 94.954 37.5523 94.51 37.7443 93.958H39.5083C39.2443 94.906 38.7163 95.68 37.9243 96.28C37.1323 96.868 36.1483 97.162 34.9723 97.162C34.0363 97.162 33.1963 96.952 32.4523 96.532C31.7203 96.112 31.1443 95.518 30.7243 94.75C30.3043 93.97 30.0943 93.07 30.0943 92.05C30.0943 91.03 30.2983 90.136 30.7063 89.368C31.1143 88.6 31.6843 88.012 32.4163 87.604C33.1603 87.184 34.0123 86.974 34.9723 86.974C35.9083 86.974 36.7363 87.178 37.4563 87.586C38.1763 87.994 38.7283 88.558 39.1123 89.278C39.5083 89.986 39.7063 90.79 39.7063 91.69ZM38.0143 91.348C38.0143 90.724 37.8763 90.19 37.6003 89.746C37.3243 89.29 36.9463 88.948 36.4663 88.72C35.9983 88.48 35.4763 88.36 34.9003 88.36C34.0723 88.36 33.3643 88.624 32.7763 89.152C32.2003 89.68 31.8703 90.412 31.7863 91.348H38.0143ZM45.3604 97.162C44.6044 97.162 43.9264 97.036 43.3264 96.784C42.7264 96.52 42.2524 96.16 41.9044 95.704C41.5564 95.236 41.3644 94.702 41.3284 94.102H43.0204C43.0684 94.594 43.2964 94.996 43.7044 95.308C44.1244 95.62 44.6704 95.776 45.3424 95.776C45.9664 95.776 46.4584 95.638 46.8184 95.362C47.1784 95.086 47.3584 94.738 47.3584 94.318C47.3584 93.886 47.1664 93.568 46.7824 93.364C46.3984 93.148 45.8044 92.938 45.0004 92.734C44.2684 92.542 43.6684 92.35 43.2004 92.158C42.7444 91.954 42.3484 91.66 42.0124 91.276C41.6884 90.88 41.5264 90.364 41.5264 89.728C41.5264 89.224 41.6764 88.762 41.9764 88.342C42.2764 87.922 42.7024 87.592 43.2544 87.352C43.8064 87.1 44.4364 86.974 45.1444 86.974C46.2364 86.974 47.1184 87.25 47.7904 87.802C48.4624 88.354 48.8224 89.11 48.8704 90.07H47.2324C47.1964 89.554 46.9864 89.14 46.6024 88.828C46.2304 88.516 45.7264 88.36 45.0904 88.36C44.5024 88.36 44.0344 88.486 43.6864 88.738C43.3384 88.99 43.1644 89.32 43.1644 89.728C43.1644 90.052 43.2664 90.322 43.4704 90.538C43.6864 90.742 43.9504 90.91 44.2624 91.042C44.5864 91.162 45.0304 91.3 45.5944 91.456C46.3024 91.648 46.8784 91.84 47.3224 92.032C47.7664 92.212 48.1444 92.488 48.4564 92.86C48.7804 93.232 48.9484 93.718 48.9604 94.318C48.9604 94.858 48.8104 95.344 48.5104 95.776C48.2104 96.208 47.7844 96.55 47.2324 96.802C46.6924 97.042 46.0684 97.162 45.3604 97.162ZM53.2707 88.486V94.3C53.2707 94.78 53.3727 95.122 53.5767 95.326C53.7807 95.518 54.1347 95.614 54.6387 95.614H55.8447V97H54.3687C53.4567 97 52.7727 96.79 52.3167 96.37C51.8607 95.95 51.6327 95.26 51.6327 94.3V88.486H50.3547V87.136H51.6327V84.652H53.2707V87.136H55.8447V88.486H53.2707ZM58.6754 85.534C58.3634 85.534 58.0994 85.426 57.8834 85.21C57.6674 84.994 57.5594 84.73 57.5594 84.418C57.5594 84.106 57.6674 83.842 57.8834 83.626C58.0994 83.41 58.3634 83.302 58.6754 83.302C58.9754 83.302 59.2274 83.41 59.4314 83.626C59.6474 83.842 59.7554 84.106 59.7554 84.418C59.7554 84.73 59.6474 84.994 59.4314 85.21C59.2274 85.426 58.9754 85.534 58.6754 85.534ZM59.4674 87.136V97H57.8294V87.136H59.4674ZM66.561 97.162C65.637 97.162 64.797 96.952 64.041 96.532C63.297 96.112 62.709 95.518 62.277 94.75C61.857 93.97 61.647 93.07 61.647 92.05C61.647 91.042 61.863 90.154 62.295 89.386C62.739 88.606 63.339 88.012 64.095 87.604C64.851 87.184 65.697 86.974 66.633 86.974C67.569 86.974 68.415 87.184 69.171 87.604C69.927 88.012 70.521 88.6 70.953 89.368C71.397 90.136 71.619 91.03 71.619 92.05C71.619 93.07 71.391 93.97 70.935 94.75C70.491 95.518 69.885 96.112 69.117 96.532C68.349 96.952 67.497 97.162 66.561 97.162ZM66.561 95.722C67.149 95.722 67.701 95.584 68.217 95.308C68.733 95.032 69.147 94.618 69.459 94.066C69.783 93.514 69.945 92.842 69.945 92.05C69.945 91.258 69.789 90.586 69.477 90.034C69.165 89.482 68.757 89.074 68.253 88.81C67.749 88.534 67.203 88.396 66.615 88.396C66.015 88.396 65.463 88.534 64.959 88.81C64.467 89.074 64.071 89.482 63.771 90.034C63.471 90.586 63.321 91.258 63.321 92.05C63.321 92.854 63.465 93.532 63.753 94.084C64.053 94.636 64.449 95.05 64.941 95.326C65.433 95.59 65.973 95.722 66.561 95.722ZM78.5787 86.956C79.7787 86.956 80.7507 87.322 81.4947 88.054C82.2387 88.774 82.6107 89.818 82.6107 91.186V97H80.9907V91.42C80.9907 90.436 80.7447 89.686 80.2527 89.17C79.7607 88.642 79.0887 88.378 78.2367 88.378C77.3727 88.378 76.6827 88.648 76.1667 89.188C75.6627 89.728 75.4107 90.514 75.4107 91.546V97H73.7727V87.136H75.4107V88.54C75.7347 88.036 76.1727 87.646 76.7247 87.37C77.2887 87.094 77.9067 86.956 78.5787 86.956Z" fill="#2E2F2E"/>
<rect width="84" height="84" rx="42" fill="white"/>
<path d="M42 74C59.6731 74 74 59.6731 74 42C74 24.3269 59.6731 10 42 10C24.3269 10 10 24.3269 10 42C10 59.6731 24.3269 74 42 74Z" fill="#E0E8E2"/>
<path d="M54.3909 46.7827C45.4391 48.7827 33.1305 55.7827 35.3684 51.2827C31.4181 48.7907 55.9524 39.3851 44.32 35.2834C50.3576 29.8851 52.1189 29.2908 56.0693 31.7828C60.0196 34.2748 58.4314 38.3586 54.3909 46.7827Z" fill="#FDF8E5"/>
<path d="M48.9746 48.5C47.2962 53 45.0582 55.5 40.023 55C35.6971 55 33.3092 51.7615 33.3092 49C31.6307 45 36.2566 47 40.5825 47C44.9084 47 48.9746 45.7386 48.9746 48.5Z" fill="#FDF8E5"/>
<path d="M24.509 45.1694C22.8351 46.4167 21.8757 48.3481 21.8757 50.4694V57.5864H21V50.4694C21 48.0616 22.0898 45.8687 23.991 44.4524C25.9303 43.0072 28.3739 42.6037 30.6959 43.347C32.8839 44.0467 34.5363 44.3968 35.4598 44.3501C39.0243 44.1851 42.0359 41.1461 42.0359 37.7144C42.0359 35.7825 41.5534 34.8137 41.0424 33.788C40.4736 32.6439 39.8278 31.3477 39.8278 28.6735V22.0013H40.7035V28.6735C40.7035 31.1356 41.2732 32.2796 41.8244 33.3863C42.3591 34.4601 42.9116 35.5704 42.9116 37.7144C42.9116 41.6069 39.5174 45.0529 35.5 45.2393C34.4518 45.2886 32.7503 44.9372 30.4327 44.1957C28.3805 43.5392 26.221 43.8937 24.509 45.1694ZM46.4626 35.859C46.4626 35.267 46.9364 34.7857 47.5188 34.7857C48.1015 34.7857 48.5753 35.2674 48.5753 35.859C48.5753 36.4506 48.1015 36.9324 47.5188 36.9324C46.9364 36.9319 46.4626 36.4506 46.4626 35.859ZM47.3384 35.859C47.3384 35.9605 47.4194 36.0428 47.5188 36.0428C47.6181 36.0428 47.6996 35.9605 47.6996 35.859C47.6996 35.7576 47.6181 35.6753 47.5188 35.6753C47.4194 35.6753 47.3384 35.7576 47.3384 35.859ZM46.2148 47.5794C46.2148 46.9878 46.6886 46.5061 47.2714 46.5061C47.8542 46.5061 48.3279 46.9878 48.3279 47.5794C48.3279 48.1715 47.8542 48.6528 47.2714 48.6528C46.6886 48.6528 46.2148 48.1715 46.2148 47.5794ZM47.0905 47.5794C47.0905 47.6808 47.172 47.7631 47.2714 47.7631C47.3708 47.7631 47.4522 47.6804 47.4522 47.5794C47.4522 47.4784 47.3712 47.3962 47.2714 47.3962C47.1715 47.3962 47.0905 47.4784 47.0905 47.5794ZM52.615 40.591C52.0326 40.591 51.5589 40.1092 51.5589 39.5176C51.5589 38.926 52.0326 38.4443 52.615 38.4443C53.1978 38.4443 53.6715 38.926 53.6715 39.5176C53.6715 40.1097 53.1978 40.591 52.615 40.591ZM52.615 39.7013C52.7148 39.7013 52.7958 39.6186 52.7958 39.5176C52.7958 39.4167 52.7144 39.3339 52.615 39.3339C52.5156 39.3339 52.4346 39.4162 52.4346 39.5176C52.4346 39.619 52.5156 39.7013 52.615 39.7013ZM53.8129 45.4532C53.8129 46.0453 53.3392 46.5266 52.7564 46.5266C52.174 46.5266 51.7003 46.0448 51.7003 45.4532C51.7003 44.8616 52.174 44.3799 52.7564 44.3799C53.3392 44.3799 53.8129 44.8616 53.8129 45.4532ZM52.9372 45.4532C52.9372 45.3518 52.8558 45.2695 52.7564 45.2695C52.657 45.2695 52.576 45.3518 52.576 45.4532C52.576 45.5546 52.657 45.6369 52.7564 45.6369C52.8558 45.6369 52.9372 45.5542 52.9372 45.4532ZM39.3532 49.6905C39.0624 49.1776 39.2358 48.5198 39.7402 48.224C40.2442 47.9286 40.8914 48.1043 41.1834 48.6167C41.3244 48.8654 41.3621 49.1545 41.2889 49.4316C41.2154 49.7083 41.0407 49.94 40.7964 50.0833C40.6304 50.1802 40.4491 50.2265 40.27 50.2265C39.9049 50.2265 39.5489 50.0339 39.3532 49.6905ZM40.1115 49.2457C40.161 49.3324 40.2709 49.3636 40.3581 49.3124C40.4145 49.2795 40.4356 49.2283 40.4426 49.2008C40.4496 49.1732 40.4566 49.1189 40.4242 49.0615C40.3909 49.0028 40.3296 48.9695 40.2674 48.9695C40.2372 48.9695 40.2057 48.9775 40.1777 48.9939C40.0918 49.0451 40.0621 49.1576 40.1115 49.2457ZM52.3006 41.6105L52.069 40.7524C50.3219 41.2391 49.2899 43.0792 49.7685 44.8545L50.6135 44.6196C50.2619 43.3177 51.0194 41.9677 52.3006 41.6105ZM47.1475 38.7294L46.9132 39.5866C47.2057 39.6693 47.503 39.7102 47.7985 39.7102C48.3573 39.7102 48.9094 39.5639 49.4094 39.277C50.1739 38.8384 50.7243 38.1236 50.9594 37.2647L50.1152 37.0267C49.9427 37.657 49.5395 38.181 48.9786 38.5026C48.4177 38.8237 47.7675 38.9042 47.1475 38.7294ZM45.1224 47.0314L45.5204 46.2392C43.9064 45.4025 41.923 46.055 41.0989 47.6946L41.8787 48.099C42.4834 46.8962 43.9367 46.4171 45.1224 47.0314ZM55.1072 34.3969L55.5972 33.6599C54.0967 32.6306 52.0497 33.0314 51.0352 34.5566L51.7603 35.0548C52.5051 33.9361 54.0065 33.6412 55.1072 34.3969ZM47.2862 45.6218L47.7517 44.8683C47.2928 44.5756 46.9736 44.1192 46.8523 43.5823C46.7311 43.0454 46.8234 42.4934 47.1111 42.0268L46.3698 41.554C45.9574 42.2212 45.8256 43.0121 45.9985 43.7803C46.1715 44.5489 46.629 45.2028 47.2862 45.6218ZM38.7822 50.5712L38.4394 49.7528C37.9437 49.9667 37.3968 49.9721 36.8986 49.7688C36.3994 49.5651 36.0088 49.1759 35.7978 48.6732L34.9921 49.022C35.2942 49.743 35.8556 50.3012 36.571 50.5944C36.92 50.7367 37.2852 50.8079 37.6499 50.8079C38.0344 50.8074 38.4184 50.7287 38.7822 50.5712ZM55.1256 41.098C55.299 41.9619 54.7486 42.8084 53.8979 42.9854L54.073 43.8568C55.3962 43.5819 56.2531 42.2644 55.983 40.9201L55.1256 41.098ZM54.4233 36.4653L53.5485 36.5098C53.5813 37.1739 53.8668 37.7851 54.3519 38.2312C54.8064 38.6485 55.3844 38.8744 55.9926 38.8744C56.0346 38.8744 56.0762 38.8735 56.1182 38.8713L56.0745 37.983C55.648 38.0004 55.2513 37.858 54.9391 37.572C54.6278 37.2842 54.4443 36.8919 54.4233 36.4653ZM39.4793 52.3403C38.907 52.3625 38.3557 52.1663 37.9306 51.7736L37.3412 52.4314C37.903 52.951 38.6202 53.2321 39.3751 53.2321C39.4232 53.2321 39.4723 53.2312 39.5204 53.2285C40.3278 53.1898 41.0722 52.8344 41.616 52.2268L40.9684 51.6281C40.5822 52.06 40.0533 52.3127 39.4793 52.3403ZM41.4956 51.0868L42.1432 51.6855C42.5303 51.254 43.0588 51.0009 43.6328 50.9733C44.2037 50.9413 44.7563 51.1468 45.181 51.5396L45.7704 50.8817C45.1732 50.3293 44.4043 50.0464 43.5912 50.0846C42.7838 50.1233 42.0394 50.4792 41.4956 51.0868ZM58.6863 52.9795C58.6863 56.2991 56.0276 59 52.7599 59C50.5303 59 48.5858 57.7416 47.5744 55.8881C44.9472 57.0201 42.289 57.6051 39.7534 57.6055C38.9412 57.6055 38.1412 57.5464 37.3592 57.4267C34.2106 56.9459 31.7012 55.0243 30.6473 52.286C30.3268 51.4524 29.5798 50.9142 28.7444 50.9142C27.5967 50.9142 26.6921 51.8332 26.6921 52.9626V57.5864H25.8164V52.9626C25.8164 51.3425 27.1138 50.0246 28.7085 50.0246C29.9423 50.0246 31.0098 50.7847 31.463 51.9613C32.4013 54.3993 34.6541 56.1132 37.4892 56.5464C40.5476 57.0139 43.8986 56.4984 47.2114 55.075C47.0489 54.6333 46.9338 54.1689 46.8777 53.6849C44.6022 54.6626 42.2518 55.1826 40.041 55.1826C39.3628 55.1826 38.6911 55.1328 38.0444 55.0349C35.7855 54.6889 33.8038 53.1418 32.9951 51.0934C32.6163 50.1353 32.4749 48.6403 32.5743 46.6507L32.601 46.1204L33.1107 46.2401C34.2824 46.515 35.2452 46.64 35.9615 46.6017C40.6444 46.3842 44.452 42.4925 44.452 37.9256C44.452 36.4311 44.3215 35.9004 44.2072 35.6055L44.0882 35.295L44.3478 35.0913C45.9687 33.8191 47.7828 32.6226 48.866 31.9073C49.1445 31.7236 49.3678 31.5764 49.518 31.4736C50.5785 30.7495 51.6644 30.3429 52.8378 30.2308C53.0331 30.2121 53.2306 30.2024 53.4232 30.2024C55.9773 30.2024 58.9604 31.9291 58.9604 36.7967C58.9604 40.5767 57.6175 44.2424 55.0744 47.4384C55.4974 47.6212 55.891 47.8579 56.257 48.1305C58.9709 44.657 60.4071 40.6661 60.4071 36.5587C60.4071 33.8685 59.569 31.672 57.9831 30.2068C56.5824 28.9124 54.7035 28.3061 52.6916 28.5001C51.2751 28.6366 49.9734 29.1188 48.7119 29.9746C47.8257 30.5756 46.7262 30.701 45.773 30.3113C44.5637 29.8171 43.7856 28.6504 43.7821 27.3355L43.7685 22.0022L44.6442 22L44.6578 27.3324C44.6604 28.2834 45.2231 29.1272 46.0913 29.4822C46.7845 29.766 47.5801 29.6726 48.225 29.2344C49.61 28.295 51.0439 27.7648 52.6084 27.614C54.8686 27.3974 56.9865 28.0828 58.572 29.5485C60.3453 31.1872 61.2828 33.611 61.2828 36.5587C61.2828 40.8783 59.7752 45.0676 56.9261 48.7035C58.012 49.795 58.6863 51.3083 58.6863 52.9795ZM46.8462 52.7286C46.9771 49.5255 49.5758 46.9585 52.7603 46.9585C53.2503 46.9585 53.724 47.0261 54.1799 47.1404C56.7334 44.0427 58.0847 40.4722 58.0847 36.7954C58.0847 32.5848 55.574 31.0906 53.4232 31.0906C53.2573 31.0906 53.087 31.0995 52.9197 31.1156C51.8956 31.2134 50.9428 31.5719 50.0071 32.2107C49.8543 32.3152 49.627 32.4656 49.3433 32.6524C48.3257 33.3241 46.6566 34.425 45.1276 35.6037C45.2375 36.0183 45.3277 36.6748 45.3277 37.9248C45.3277 42.96 41.1453 47.2512 36.0049 47.4896C35.328 47.5247 34.4601 47.4357 33.4285 47.2209C33.3834 48.7991 33.5131 50.0166 33.8077 50.7621C34.5035 52.5231 36.2177 53.8553 38.1749 54.1551C40.8633 54.563 43.9257 54.0434 46.8462 52.7286ZM57.8106 52.9795C57.8106 50.1504 55.5447 47.8485 52.7599 47.8485C49.9751 47.8485 47.7092 50.15 47.7092 52.9795C47.7092 55.8089 49.9751 58.1104 52.7599 58.1104C55.5447 58.1104 57.8106 55.8085 57.8106 52.9795ZM52.252 54.6391L50.5141 52.874L49.895 53.503L52.3785 56.026L55.6944 51.1041L54.9719 50.6015L52.252 54.6391Z" fill="#3A643C"/>
</svg>
