<svg width="78" height="98" viewBox="0 0 78 98" fill="none" xmlns="http://www.w3.org/2000/svg">
<circle cx="39" cy="40" r="32" fill="#EAF2EA"/>
<path d="M32.052 82.454V95H30.414V89.312H24.024V95H22.386V82.454H24.024V87.962H30.414V82.454H32.052ZM34.2369 90.032C34.2369 89.024 34.4409 88.142 34.8489 87.386C35.2569 86.618 35.8149 86.024 36.5229 85.604C37.2429 85.184 38.0409 84.974 38.9169 84.974C39.7809 84.974 40.5309 85.16 41.1669 85.532C41.8029 85.904 42.2769 86.372 42.5889 86.936V85.136H44.2449V95H42.5889V93.164C42.2649 93.74 41.7789 94.22 41.1309 94.604C40.4949 94.976 39.7509 95.162 38.8989 95.162C38.0229 95.162 37.2309 94.946 36.5229 94.514C35.8149 94.082 35.2569 93.476 34.8489 92.696C34.4409 91.916 34.2369 91.028 34.2369 90.032ZM42.5889 90.05C42.5889 89.306 42.4389 88.658 42.1389 88.106C41.8389 87.554 41.4309 87.134 40.9149 86.846C40.4109 86.546 39.8529 86.396 39.2409 86.396C38.6289 86.396 38.0709 86.54 37.5669 86.828C37.0629 87.116 36.6609 87.536 36.3609 88.088C36.0609 88.64 35.9109 89.288 35.9109 90.032C35.9109 90.788 36.0609 91.448 36.3609 92.012C36.6609 92.564 37.0629 92.99 37.5669 93.29C38.0709 93.578 38.6289 93.722 39.2409 93.722C39.8529 93.722 40.4109 93.578 40.9149 93.29C41.4309 92.99 41.8389 92.564 42.1389 92.012C42.4389 91.448 42.5889 90.794 42.5889 90.05ZM47.859 83.534C47.547 83.534 47.283 83.426 47.067 83.21C46.851 82.994 46.743 82.73 46.743 82.418C46.743 82.106 46.851 81.842 47.067 81.626C47.283 81.41 47.547 81.302 47.859 81.302C48.159 81.302 48.411 81.41 48.615 81.626C48.831 81.842 48.939 82.106 48.939 82.418C48.939 82.73 48.831 82.994 48.615 83.21C48.411 83.426 48.159 83.534 47.859 83.534ZM48.651 85.136V95H47.013V85.136H48.651ZM53.0806 86.738C53.3686 86.174 53.7766 85.736 54.3046 85.424C54.8446 85.112 55.4986 84.956 56.2666 84.956V86.648H55.8346C53.9986 86.648 53.0806 87.644 53.0806 89.636V95H51.4426V85.136H53.0806V86.738Z" fill="#2E2F2E"/>
<path d="M38 70C55.6731 70 70 55.6731 70 38C70 20.3269 55.6731 6 38 6C20.3269 6 6 20.3269 6 38C6 55.6731 20.3269 70 38 70Z" fill="#E0E8E2"/>
<path d="M32.2147 50.7513C34.2036 51.9428 37.1143 52.9397 38.4483 52.9397C42.5718 52.9397 48.6114 47.1282 49.0723 40.5871C49.0965 40.3926 49.0238 40.1981 48.8782 40.0522C45.1914 35.8698 44.3424 30.5932 44.1727 29.3288C44.2211 29.1343 44.1484 29.037 44.1484 29.037C44.0999 28.9884 43.9543 29.11 43.9058 29.1829C43.3965 29.8638 42.8628 30.3744 42.4505 30.6662C42.2565 30.7878 41.9897 30.7148 41.9169 30.4717C41.359 28.8668 39.3701 27.7482 38.7394 27.4078C38.6181 27.3349 38.4726 27.3349 38.327 27.3835C36.9687 27.8212 29.4981 30.6905 28.5278 39.1768C28.3095 40.9519 28.3581 42.4838 28.552 43.7726C29.1827 48.1251 32.6512 48.6601 34.0095 48.7087C34.2036 48.7087 34.3006 48.9519 34.1551 49.0978C29.7937 51.8941 22.7793 46.423 22.7793 46.423" fill="#FDF8E5"/>
<path d="M32.2147 50.7513C34.2036 51.9428 37.1143 52.9397 38.4483 52.9397C42.5718 52.9397 48.6114 47.1282 49.0723 40.5871C49.0965 40.3926 49.0238 40.1981 48.8782 40.0522C45.1914 35.8698 44.3424 30.5932 44.1727 29.3288C44.2211 29.1343 44.1484 29.037 44.1484 29.037C44.0999 28.9884 43.9543 29.11 43.9058 29.1829C43.3965 29.8638 42.8628 30.3744 42.4505 30.6662C42.2565 30.7878 41.9897 30.7148 41.9169 30.4717C41.359 28.8668 39.3701 27.7482 38.7394 27.4078C38.6181 27.3349 38.4726 27.3349 38.327 27.3835C36.9687 27.8212 29.4981 30.6905 28.5278 39.1768C28.3095 40.9519 28.3581 42.4838 28.552 43.7726C29.1827 48.1251 32.6512 48.6601 34.0095 48.7087C34.2036 48.7087 34.3006 48.9519 34.1551 49.0978C29.7937 51.8941 22.7793 46.423 22.7793 46.423" stroke="#3A643C" stroke-miterlimit="10" stroke-linecap="round" stroke-linejoin="round"/>
<path d="M45.0213 35.9179C50.2324 35.9179 54.4567 31.683 54.4567 26.4589C54.4567 21.2349 50.2324 17 45.0213 17C39.8103 17 35.5859 21.2349 35.5859 26.4589C35.5859 31.683 39.8103 35.9179 45.0213 35.9179Z" stroke="#3A643C" stroke-miterlimit="10" stroke-linecap="round" stroke-linejoin="round"/>
<path d="M53.6312 30.0859L52.4531 32.1275L61.9642 37.6428L63.1422 35.6012L53.6312 30.0859Z" fill="#3A643C"/>
<path d="M26.0876 48.9149C21.1469 54.8724 19.6739 48.9026 19.5041 45.0121C19.3343 41.1215 24.5007 34.7507 25.6165 32.3434C26.7323 29.9604 25.1314 24.9513 31.4863 21.7659C36.7983 19.0912 40.1698 21.7902 41.1158 22.7385C41.2613 22.8844 41.5039 22.8844 41.6494 22.7385C44.366 19.8206 49.6779 23.1276 50.0661 28.8662C50.4784 34.7993 52.4674 36.4285 53.292 37.62C54.8444 39.8814 58.6768 47.6382 55.0141 50.1428C51.3273 52.6716 49.8478 49.5349 49.8478 49.5349C49.8478 49.5349 47.689 51.9421 45.0937 50.9695C44.6814 50.8236 44.3418 50.5561 44.0749 50.2887" stroke="#3A643C" stroke-miterlimit="10" stroke-linecap="round" stroke-linejoin="round"/>
<path d="M44.1717 29.3283C44.1231 29.2798 44.0747 29.2555 44.002 29.207" stroke="#0079AB" stroke-miterlimit="10" stroke-linecap="round" stroke-linejoin="round"/>
<path d="M33.7178 51.5527V56.9995" stroke="#3A643C" stroke-miterlimit="10" stroke-linecap="round" stroke-linejoin="round"/>
<path d="M42.959 51.1641V57" stroke="#3A643C" stroke-miterlimit="10" stroke-linecap="round" stroke-linejoin="round"/>
</svg>
