<svg width="86" height="101" viewBox="0 0 86 101" fill="none" xmlns="http://www.w3.org/2000/svg">
<circle cx="43" cy="41" r="32" fill="#EAF2EA"/>
<path d="M3.024 83.454V96H1.386V83.454H3.024ZM17.6777 85.956C18.4457 85.956 19.1297 86.118 19.7297 86.442C20.3297 86.754 20.8037 87.228 21.1517 87.864C21.4997 88.5 21.6737 89.274 21.6737 90.186V96H20.0537V90.42C20.0537 89.436 19.8077 88.686 19.3157 88.17C18.8357 87.642 18.1817 87.378 17.3537 87.378C16.5017 87.378 15.8237 87.654 15.3197 88.206C14.8157 88.746 14.5637 89.532 14.5637 90.564V96H12.9437V90.42C12.9437 89.436 12.6977 88.686 12.2057 88.17C11.7257 87.642 11.0717 87.378 10.2437 87.378C9.39169 87.378 8.71369 87.654 8.20969 88.206C7.70569 88.746 7.45369 89.532 7.45369 90.564V96H5.81569V86.136H7.45369V87.558C7.77769 87.042 8.20969 86.646 8.74969 86.37C9.30169 86.094 9.90769 85.956 10.5677 85.956C11.3957 85.956 12.1277 86.142 12.7637 86.514C13.3997 86.886 13.8737 87.432 14.1857 88.152C14.4617 87.456 14.9177 86.916 15.5537 86.532C16.1897 86.148 16.8977 85.956 17.6777 85.956ZM36.2226 85.956C36.9906 85.956 37.6746 86.118 38.2746 86.442C38.8746 86.754 39.3486 87.228 39.6966 87.864C40.0446 88.5 40.2186 89.274 40.2186 90.186V96H38.5986V90.42C38.5986 89.436 38.3526 88.686 37.8606 88.17C37.3806 87.642 36.7266 87.378 35.8986 87.378C35.0466 87.378 34.3686 87.654 33.8646 88.206C33.3606 88.746 33.1086 89.532 33.1086 90.564V96H31.4886V90.42C31.4886 89.436 31.2426 88.686 30.7506 88.17C30.2706 87.642 29.6166 87.378 28.7886 87.378C27.9366 87.378 27.2586 87.654 26.7546 88.206C26.2506 88.746 25.9986 89.532 25.9986 90.564V96H24.3606V86.136H25.9986V87.558C26.3226 87.042 26.7546 86.646 27.2946 86.37C27.8466 86.094 28.4526 85.956 29.1126 85.956C29.9406 85.956 30.6726 86.142 31.3086 86.514C31.9446 86.886 32.4186 87.432 32.7306 88.152C33.0066 87.456 33.4626 86.916 34.0986 86.532C34.7346 86.148 35.4426 85.956 36.2226 85.956ZM51.6535 86.136V96H50.0155V94.542C49.7035 95.046 49.2655 95.442 48.7015 95.73C48.1495 96.006 47.5375 96.144 46.8655 96.144C46.0975 96.144 45.4075 95.988 44.7955 95.676C44.1835 95.352 43.6975 94.872 43.3375 94.236C42.9895 93.6 42.8155 92.826 42.8155 91.914V86.136H44.4355V91.698C44.4355 92.67 44.6815 93.42 45.1735 93.948C45.6655 94.464 46.3375 94.722 47.1895 94.722C48.0655 94.722 48.7555 94.452 49.2595 93.912C49.7635 93.372 50.0155 92.586 50.0155 91.554V86.136H51.6535ZM59.2252 85.956C60.4252 85.956 61.3972 86.322 62.1412 87.054C62.8852 87.774 63.2572 88.818 63.2572 90.186V96H61.6372V90.42C61.6372 89.436 61.3912 88.686 60.8992 88.17C60.4072 87.642 59.7352 87.378 58.8832 87.378C58.0192 87.378 57.3292 87.648 56.8132 88.188C56.3092 88.728 56.0572 89.514 56.0572 90.546V96H54.4192V86.136H56.0572V87.54C56.3812 87.036 56.8192 86.646 57.3712 86.37C57.9352 86.094 58.5532 85.956 59.2252 85.956ZM66.7789 84.534C66.4669 84.534 66.2029 84.426 65.9869 84.21C65.7709 83.994 65.6629 83.73 65.6629 83.418C65.6629 83.106 65.7709 82.842 65.9869 82.626C66.2029 82.41 66.4669 82.302 66.7789 82.302C67.0789 82.302 67.3309 82.41 67.5349 82.626C67.7509 82.842 67.8589 83.106 67.8589 83.418C67.8589 83.73 67.7509 83.994 67.5349 84.21C67.3309 84.426 67.0789 84.534 66.7789 84.534ZM67.5709 86.136V96H65.9329V86.136H67.5709ZM72.3606 87.486V93.3C72.3606 93.78 72.4626 94.122 72.6666 94.326C72.8706 94.518 73.2246 94.614 73.7286 94.614H74.9346V96H73.4586C72.5466 96 71.8626 95.79 71.4066 95.37C70.9506 94.95 70.7226 94.26 70.7226 93.3V87.486H69.4446V86.136H70.7226V83.652H72.3606V86.136H74.9346V87.486H72.3606ZM85.4152 86.136L79.4752 100.644H77.7832L79.7272 95.892L75.7492 86.136H77.5672L80.6632 94.128L83.7232 86.136H85.4152Z" fill="#2E2F2E"/>
<rect x="1" width="84" height="84" rx="42" fill="white"/>
<path d="M43 74C60.6731 74 75 59.6731 75 42C75 24.3269 60.6731 10 43 10C25.3269 10 11 24.3269 11 42C11 59.6731 25.3269 74 43 74Z" fill="#E0E8E2"/>
<path d="M60.8151 33.0955C60.8138 32.7252 60.6027 32.3671 60.2725 32.1751L52.8714 27.9882C52.569 27.8171 52.2004 27.8173 51.8909 27.9752C46.936 30.5017 40.8612 30.5007 35.9072 27.972C35.6012 27.8157 35.2371 27.8136 34.9362 27.9796L27.511 32.075C27.1808 32.267 26.9697 32.6252 26.9684 32.9955C26.9282 44.1038 34.1179 55.5205 43.8919 60.1487C44.2852 60.3664 44.1453 60.3664 44.5386 60.1487C54.4967 54.6309 60.8182 44.1687 60.8151 33.0955Z" fill="#FDF8E5" stroke="#3A643C" stroke-miterlimit="10"/>
<path opacity="0.5" d="M41.4112 36.4187C41.2786 36.7271 41.2786 37.118 41.2786 37.8999V39.4974C41.2786 39.5353 41.2786 39.5543 41.2664 39.5661C41.2541 39.5779 41.2344 39.5779 41.195 39.5779H39.5365C38.7248 39.5779 38.3189 39.5779 37.9988 39.7057C37.5719 39.876 37.2328 40.2026 37.056 40.6138C36.9233 40.9222 36.9233 41.3131 36.9233 42.095C36.9233 42.8769 36.9233 43.2678 37.056 43.5762C37.2328 43.9873 37.5719 44.314 37.9988 44.4843C38.3189 44.612 38.7248 44.612 39.5365 44.612H41.195C41.2344 44.612 41.2541 44.612 41.2664 44.6238C41.2786 44.6356 41.2786 44.6546 41.2786 44.6926V46.2901C41.2786 47.072 41.2786 47.4629 41.4112 47.7713C41.5881 48.1824 41.9272 48.5091 42.3541 48.6794C42.6742 48.8072 43.0801 48.8072 43.8918 48.8072C44.7035 48.8072 45.1094 48.8072 45.4295 48.6794C45.8564 48.5091 46.1956 48.1824 46.3724 47.7713C46.505 47.4629 46.505 47.072 46.505 46.2901V44.6926C46.505 44.6546 46.505 44.6356 46.5172 44.6238C46.5295 44.612 46.5492 44.612 46.5886 44.612H48.2471C49.0588 44.612 49.4647 44.612 49.7848 44.4843C50.2117 44.314 50.5509 43.9873 50.7277 43.5762C50.8603 43.2678 50.8603 42.8769 50.8603 42.095C50.8603 41.3131 50.8603 40.9222 50.7277 40.6138C50.5509 40.2026 50.2117 39.876 49.7848 39.7057C49.4647 39.5779 49.0588 39.5779 48.2471 39.5779H46.5886C46.5492 39.5779 46.5295 39.5779 46.5172 39.5661C46.505 39.5543 46.505 39.5353 46.505 39.4974V37.8999C46.505 37.118 46.505 36.7271 46.3724 36.4187C46.1956 36.0075 45.8564 35.6809 45.4295 35.5105C45.1094 35.3828 44.7035 35.3828 43.8918 35.3828C43.0801 35.3828 42.6742 35.3828 42.3541 35.5105C41.9272 35.6809 41.5881 36.0075 41.4112 36.4187Z" fill="#E0E8E2" stroke="#3A643C"/>
<ellipse opacity="0.5" cx="36.25" cy="55.1667" rx="3.125" ry="2.60417" stroke="#3A643C"/>
<path d="M36.25 52.25L36.25 52.4583" stroke="#3A643C" stroke-linecap="round"/>
<path d="M36.25 57.457V58.2904" stroke="#3A643C" stroke-linecap="round"/>
<path d="M33.6159 53.6105C33.828 53.7872 34.172 53.7872 34.3841 53.6105C34.5962 53.4337 34.5962 53.1471 34.3841 52.9703L33.6159 53.6105ZM33.75 53.082L33.3659 53.4021L33.6159 53.6105L34 53.2904L34.3841 52.9703L34.1341 52.7619L33.75 53.082Z" fill="#3A643C"/>
<path d="M37.7409 53.2828C37.5288 53.4596 37.5288 53.7462 37.7409 53.923C37.953 54.0997 38.297 54.0997 38.5091 53.923L37.7409 53.2828ZM38.75 53.082L38.3659 52.7619L37.7409 53.2828L38.125 53.6029L38.5091 53.923L39.1341 53.4021L38.75 53.082Z" fill="#3A643C"/>
<path d="M38.8841 56.7216C38.672 56.5448 38.328 56.5448 38.1159 56.7216C37.9038 56.8984 37.9038 57.185 38.1159 57.3618L38.8841 56.7216ZM38.75 57.25L39.1341 56.9299L38.8841 56.7216L38.5 57.0417L38.1159 57.3618L38.3659 57.5701L38.75 57.25Z" fill="#3A643C"/>
<path d="M32.5 55.166L33 55.166" stroke="#3A643C" stroke-linecap="round"/>
<path d="M39 55.166L40 55.166" stroke="#3A643C" stroke-linecap="round"/>
<path d="M34.7591 57.0493C34.9712 56.8725 34.9712 56.5859 34.7591 56.4091C34.547 56.2323 34.203 56.2323 33.9909 56.4091L34.7591 57.0493ZM33.75 57.25L34.1341 57.5701L34.7591 57.0493L34.375 56.7292L33.9909 56.4091L33.3659 56.9299L33.75 57.25Z" fill="#3A643C"/>
<path d="M36.5 53.9167C36.5 54.1468 36.2761 54.3333 36 54.3333C35.7239 54.3333 35.5 54.1468 35.5 53.9167C35.5 53.6865 35.7239 53.5 36 53.5C36.2761 53.5 36.5 53.6865 36.5 53.9167Z" stroke="#3A643C"/>
<path d="M35.5 55.5827C35.5 55.8128 35.2761 55.9993 35 55.9993C34.7239 55.9993 34.5 55.8128 34.5 55.5827C34.5 55.3526 34.7239 55.166 35 55.166C35.2761 55.166 35.5 55.3526 35.5 55.5827Z" stroke="#3A643C"/>
<path d="M38.25 55.9987C38.25 56.2288 38.0261 56.4154 37.75 56.4154C37.4739 56.4154 37.25 56.2288 37.25 55.9987C37.25 55.7686 37.4739 55.582 37.75 55.582C38.0261 55.582 38.25 55.7686 38.25 55.9987Z" stroke="#3A643C"/>
<ellipse cx="0.5" cy="0.416667" rx="0.5" ry="0.416667" transform="matrix(1 0 0 -1 35.75 52.041)" stroke="#3A643C"/>
<path d="M36.75 58.7083C36.75 58.4782 36.5261 58.2917 36.25 58.2917C35.9739 58.2917 35.75 58.4782 35.75 58.7083C35.75 58.9385 35.9739 59.125 36.25 59.125C36.5261 59.125 36.75 58.9385 36.75 58.7083Z" stroke="#3A643C"/>
<ellipse cx="0.5" cy="0.416667" rx="0.5" ry="0.416667" transform="matrix(1 0 0 -1 32.75 53.082)" stroke="#3A643C"/>
<ellipse cx="0.5" cy="0.416667" rx="0.5" ry="0.416667" transform="matrix(1 0 0 -1 38.75 53.082)" stroke="#3A643C"/>
<ellipse cx="0.5" cy="0.416667" rx="0.5" ry="0.416667" transform="matrix(1 0 0 -1 38.75 58.082)" stroke="#3A643C"/>
<path d="M32.5 55.1654C32.5 54.9352 32.2761 54.7487 32 54.7487C31.7239 54.7487 31.5 54.9352 31.5 55.1654C31.5 55.3955 31.7239 55.582 32 55.582C32.2761 55.582 32.5 55.3955 32.5 55.1654Z" stroke="#3A643C"/>
<path d="M41 55.1654C41 54.9352 40.7761 54.7487 40.5 54.7487C40.2239 54.7487 40 54.9352 40 55.1654C40 55.3955 40.2239 55.582 40.5 55.582C40.7761 55.582 41 55.3955 41 55.1654Z" stroke="#3A643C"/>
<ellipse cx="0.5" cy="0.416667" rx="0.5" ry="0.416667" transform="matrix(1 0 0 -1 32.75 58.082)" stroke="#3A643C"/>
</svg>
