<svg width="84" height="99" viewBox="0 0 84 99" fill="none" xmlns="http://www.w3.org/2000/svg">
<circle cx="42" cy="41" r="32" fill="#EAF2EA"/>
<path d="M33.612 83.544V96H31.974V86.712L27.834 96H26.682L22.524 86.694V96H20.886V83.544H22.65L27.258 93.84L31.866 83.544H33.612ZM40.6919 96.162C39.7679 96.162 38.9279 95.952 38.1719 95.532C37.4279 95.112 36.8399 94.518 36.4079 93.75C35.9879 92.97 35.7779 92.07 35.7779 91.05C35.7779 90.042 35.9939 89.154 36.4259 88.386C36.8699 87.606 37.4699 87.012 38.2259 86.604C38.9819 86.184 39.8279 85.974 40.7639 85.974C41.6999 85.974 42.5459 86.184 43.3019 86.604C44.0579 87.012 44.6519 87.6 45.0839 88.368C45.5279 89.136 45.7499 90.03 45.7499 91.05C45.7499 92.07 45.5219 92.97 45.0659 93.75C44.6219 94.518 44.0159 95.112 43.2479 95.532C42.4799 95.952 41.6279 96.162 40.6919 96.162ZM40.6919 94.722C41.2799 94.722 41.8319 94.584 42.3479 94.308C42.8639 94.032 43.2779 93.618 43.5899 93.066C43.9139 92.514 44.0759 91.842 44.0759 91.05C44.0759 90.258 43.9199 89.586 43.6079 89.034C43.2959 88.482 42.8879 88.074 42.3839 87.81C41.8799 87.534 41.3339 87.396 40.7459 87.396C40.1459 87.396 39.5939 87.534 39.0899 87.81C38.5979 88.074 38.2019 88.482 37.9019 89.034C37.6019 89.586 37.4519 90.258 37.4519 91.05C37.4519 91.854 37.5959 92.532 37.8839 93.084C38.1839 93.636 38.5799 94.05 39.0719 94.326C39.5639 94.59 40.1039 94.722 40.6919 94.722ZM49.5416 87.738C49.8296 87.174 50.2376 86.736 50.7656 86.424C51.3056 86.112 51.9596 85.956 52.7276 85.956V87.648H52.2956C50.4596 87.648 49.5416 88.644 49.5416 90.636V96H47.9036V86.136H49.5416V87.738ZM63.6184 90.69C63.6184 91.002 63.6004 91.332 63.5644 91.68H55.6804C55.7404 92.652 56.0704 93.414 56.6704 93.966C57.2824 94.506 58.0204 94.776 58.8844 94.776C59.5924 94.776 60.1804 94.614 60.6484 94.29C61.1284 93.954 61.4644 93.51 61.6564 92.958H63.4204C63.1564 93.906 62.6284 94.68 61.8364 95.28C61.0444 95.868 60.0604 96.162 58.8844 96.162C57.9484 96.162 57.1084 95.952 56.3644 95.532C55.6324 95.112 55.0564 94.518 54.6364 93.75C54.2164 92.97 54.0064 92.07 54.0064 91.05C54.0064 90.03 54.2104 89.136 54.6184 88.368C55.0264 87.6 55.5964 87.012 56.3284 86.604C57.0724 86.184 57.9244 85.974 58.8844 85.974C59.8204 85.974 60.6484 86.178 61.3684 86.586C62.0884 86.994 62.6404 87.558 63.0244 88.278C63.4204 88.986 63.6184 89.79 63.6184 90.69ZM61.9264 90.348C61.9264 89.724 61.7884 89.19 61.5124 88.746C61.2364 88.29 60.8584 87.948 60.3784 87.72C59.9104 87.48 59.3884 87.36 58.8124 87.36C57.9844 87.36 57.2764 87.624 56.6884 88.152C56.1124 88.68 55.7824 89.412 55.6984 90.348H61.9264Z" fill="#2E2F2E"/>
<rect width="84" height="84" rx="42" fill="white"/>
<path d="M42 74C59.6731 74 74 59.6731 74 42C74 24.3269 59.6731 10 42 10C24.3269 10 10 24.3269 10 42C10 59.6731 24.3269 74 42 74Z" fill="#E0E8E2"/>
<path d="M37.366 34.8512C37.2564 34.7569 37.1674 34.6408 37.1045 34.5103C37.0417 34.3797 37.0064 34.2376 37.0008 34.0927C36.9952 33.9478 37.0195 33.8033 37.0722 33.6683C37.1248 33.5333 37.2046 33.4107 37.3067 33.3081C37.4087 33.2056 37.5308 33.1254 37.6651 33.0725C37.7995 33.0196 37.9433 32.9952 38.0875 33.0008C38.2317 33.0064 38.3732 33.0419 38.5031 33.105C38.633 33.1682 38.7485 33.2576 38.8424 33.3677L46.6955 41.2583C46.8905 41.4554 47 41.7221 47 42C47 42.2779 46.8905 42.5446 46.6955 42.7417L38.8424 50.6323C38.7485 50.7424 38.633 50.8318 38.5031 50.895C38.3732 50.9581 38.2317 50.9936 38.0875 50.9992C37.9433 51.0048 37.7995 50.9804 37.6651 50.9275C37.5308 50.8746 37.4087 50.7944 37.3067 50.6919C37.2046 50.5893 37.1248 50.4667 37.0721 50.3317C37.0195 50.1967 36.9952 50.0522 37.0008 49.9073C37.0063 49.7624 37.0417 49.6203 37.1045 49.4897C37.1674 49.3592 37.2564 49.2431 37.366 49.1488L44.4757 42L37.366 34.8512Z" fill="#3A643B"/>
</svg>
