<svg width="84" height="101" viewBox="0 0 84 101" fill="none" xmlns="http://www.w3.org/2000/svg">
<circle cx="42" cy="43" r="32" fill="#EAF2EA"/>
<path d="M29.364 98.126C28.536 98.126 27.792 97.982 27.132 97.694C26.484 97.394 25.974 96.986 25.602 96.47C25.23 95.942 25.038 95.336 25.026 94.652H26.772C26.832 95.24 27.072 95.738 27.492 96.146C27.924 96.542 28.548 96.74 29.364 96.74C30.144 96.74 30.756 96.548 31.2 96.164C31.656 95.768 31.884 95.264 31.884 94.652C31.884 94.172 31.752 93.782 31.488 93.482C31.224 93.182 30.894 92.954 30.498 92.798C30.102 92.642 29.568 92.474 28.896 92.294C28.068 92.078 27.402 91.862 26.898 91.646C26.406 91.43 25.98 91.094 25.62 90.638C25.272 90.17 25.098 89.546 25.098 88.766C25.098 88.082 25.272 87.476 25.62 86.948C25.968 86.42 26.454 86.012 27.078 85.724C27.714 85.436 28.44 85.292 29.256 85.292C30.432 85.292 31.392 85.586 32.136 86.174C32.892 86.762 33.318 87.542 33.414 88.514H31.614C31.554 88.034 31.302 87.614 30.858 87.254C30.414 86.882 29.826 86.696 29.094 86.696C28.41 86.696 27.852 86.876 27.42 87.236C26.988 87.584 26.772 88.076 26.772 88.712C26.772 89.168 26.898 89.54 27.15 89.828C27.414 90.116 27.732 90.338 28.104 90.494C28.488 90.638 29.022 90.806 29.706 90.998C30.534 91.226 31.2 91.454 31.704 91.682C32.208 91.898 32.64 92.24 33 92.708C33.36 93.164 33.54 93.788 33.54 94.58C33.54 95.192 33.378 95.768 33.054 96.308C32.73 96.848 32.25 97.286 31.614 97.622C30.978 97.958 30.228 98.126 29.364 98.126ZM41.4585 98L37.5885 93.644V98H35.9505V84.68H37.5885V92.51L41.3865 88.136H43.6725L39.0285 93.05L43.6905 98H41.4585ZM46.0601 86.534C45.7481 86.534 45.4841 86.426 45.2681 86.21C45.0521 85.994 44.9441 85.73 44.9441 85.418C44.9441 85.106 45.0521 84.842 45.2681 84.626C45.4841 84.41 45.7481 84.302 46.0601 84.302C46.3601 84.302 46.6121 84.41 46.8161 84.626C47.0321 84.842 47.1401 85.106 47.1401 85.418C47.1401 85.73 47.0321 85.994 46.8161 86.21C46.6121 86.426 46.3601 86.534 46.0601 86.534ZM46.8521 88.136V98H45.2141V88.136H46.8521ZM54.4498 87.956C55.6498 87.956 56.6218 88.322 57.3658 89.054C58.1098 89.774 58.4818 90.818 58.4818 92.186V98H56.8618V92.42C56.8618 91.436 56.6158 90.686 56.1238 90.17C55.6318 89.642 54.9598 89.378 54.1078 89.378C53.2438 89.378 52.5538 89.648 52.0378 90.188C51.5338 90.728 51.2818 91.514 51.2818 92.546V98H49.6438V88.136H51.2818V89.54C51.6058 89.036 52.0438 88.646 52.5958 88.37C53.1598 88.094 53.7778 87.956 54.4498 87.956Z" fill="#2E2F2E"/>
<rect width="84" height="84" rx="42" fill="white"/>
<ellipse cx="41.5" cy="42" rx="32.5" ry="32" fill="#E0E8E2"/>
<path d="M55.6409 35.262C55.1098 45.3916 49.1652 33.4546 41.8321 33.4546C39.992 34.1937 29.1231 45.9205 28.3076 35.26C28.3076 28.7823 34.499 23 41.8321 23C49.1652 23 55.6409 28.7843 55.6409 35.262Z" fill="#FDF8E5"/>
<path d="M52.7693 61.3276C50.5014 60.8986 48.853 59.7559 47.8611 57.9366C46.4314 55.3089 46.8645 52.2273 47.0555 51.7777C48.7598 50.6226 50.0264 49.1128 50.9671 47.079C52.3502 47.0501 53.7192 46.1055 54.6459 44.542C55.4189 43.2343 55.8287 41.4316 54.9952 40.3631C54.8275 40.1445 54.5714 39.9176 54.1896 39.7567C55.1954 38.0654 55.4003 36.6463 55.4003 34.8229C55.4003 28.3051 49.3279 23 41.8679 23C38.827 23 36.0143 23.8828 33.7512 25.3679C33.7419 25.372 33.7325 25.3761 33.7232 25.3803C33.6953 25.3968 33.672 25.4174 33.6487 25.438C30.4169 27.5996 28.3307 31.003 28.3307 34.8229C28.3307 36.8154 28.3773 37.9045 29.3785 39.5175C28.9082 39.6783 28.6055 39.9382 28.4145 40.1857C27.581 41.2583 27.9861 43.0569 28.7638 44.3646C29.7045 45.9569 31.1061 46.9058 32.5125 46.9058C32.5777 46.9058 32.6382 46.8893 32.6894 46.8645C33.6999 49.0179 35.0411 50.6721 36.6803 51.7777C36.8665 52.2232 37.3043 55.3047 35.8746 57.9366C34.8828 59.7559 33.2296 60.8986 30.9664 61.3317C30.7615 61.3688 30.6312 61.5504 30.6731 61.7319C30.7103 61.8886 30.8686 62 31.0456 62C31.0735 62 31.0968 61.9959 31.1248 61.9917C35.2274 61.2121 36.7594 58.4523 37.3229 56.2742C37.6814 54.8963 37.714 53.3618 37.579 52.3593C38.8549 53.073 40.3451 53.4566 41.8679 53.4566C43.3906 53.4566 44.8854 53.0689 46.1567 52.3593C46.017 53.3659 46.0543 54.8963 46.4128 56.2742C46.9763 58.4523 48.5084 61.2121 52.6109 61.9917C52.6389 61.9959 52.6668 62 52.6901 62C52.8671 62 53.0254 61.8927 53.0626 61.7319C53.1045 61.5421 52.9742 61.3647 52.7693 61.3276ZM54.6366 34.8188C54.6366 36.8649 54.32 38.1314 53.4352 39.5628C53.2768 39.5463 53.1092 39.5381 52.9229 39.5422C53.7612 30.3305 47.0881 28.0905 47.0182 28.0699C46.818 28.008 46.6037 28.0988 46.5292 28.2721C46.4594 28.4453 46.5618 28.6392 46.7574 28.7052C46.8133 28.7217 51.3722 30.2604 52.122 36.2626C49.4723 30.4626 41.323 30.5121 41.2252 30.5203C41.0157 30.5244 40.848 30.6771 40.8527 30.8627C40.8573 31.0483 41.025 31.1927 41.2345 31.1927C41.2392 31.1927 41.2392 31.1927 41.2392 31.1927C41.6257 31.1845 50.1894 31.1391 51.8845 37.8797C51.0556 36.9598 49.8448 36.1389 48.229 35.3963C47.3069 34.9714 46.3337 34.6167 45.393 34.2743C44.3965 33.9113 43.3673 33.5359 42.408 33.0821C38.7944 31.3577 36.4847 28.5361 34.4497 25.7515C36.5406 24.4438 39.1018 23.6724 41.8632 23.6724C48.9088 23.6724 54.6366 28.6722 54.6366 34.8188ZM29.0944 34.8188C29.0944 31.3247 30.9478 28.2019 33.8396 26.1558C35.7675 28.796 37.9562 31.4691 41.2764 33.2677C40.536 34.1216 37.1459 37.7147 31.5858 39.1874C31.8792 36.5638 34.6127 33.9608 34.6406 33.936C34.785 33.7999 34.7756 33.5854 34.6266 33.4575C34.473 33.3296 34.2308 33.3378 34.0911 33.4699C33.9607 33.5936 30.9758 36.4276 30.8081 39.3772C30.8035 39.3772 30.7988 39.3772 30.7941 39.3813C30.566 39.3607 30.3564 39.3566 30.1655 39.3648C29.141 37.7972 29.0944 36.8195 29.0944 34.8188ZM37.2018 51.2785C35.4648 50.1193 34.0771 48.3042 33.0853 45.9033L32.4426 43.9768C32.3821 43.7994 32.1725 43.6963 31.9676 43.7499C31.7674 43.8036 31.651 43.9892 31.7115 44.1707L32.3635 46.1178C32.3774 46.155 32.3961 46.188 32.41 46.2251C31.1387 46.1673 30.0491 45.0741 29.4437 44.0511C28.652 42.7145 28.4891 41.2831 29.0479 40.5694C29.3785 40.1445 29.9606 39.9754 30.7802 40.0661C30.7895 40.0661 30.8035 40.0661 30.8128 40.0661C30.8174 40.0661 30.8221 40.0661 30.8267 40.0661C30.8314 40.0661 30.8361 40.0661 30.8407 40.0661C30.864 40.0661 30.8873 40.062 30.9106 40.0579C30.9152 40.0579 30.9152 40.0579 30.9199 40.0579H30.9245C30.9292 40.0579 30.9338 40.0579 30.9385 40.0537C31.027 40.0331 31.1155 40.0125 31.1993 39.9919C31.2505 39.9877 31.3017 39.9754 31.3483 39.9589C37.6209 38.4614 41.2578 34.4352 41.9424 33.6184C41.9843 33.639 42.0262 33.6637 42.0681 33.6844C43.06 34.1546 44.1077 34.5383 45.1183 34.9054C46.0403 35.2437 46.9996 35.5902 47.8937 36.0027C50.1848 37.0506 51.5865 38.251 52.1872 39.666C52.1872 39.6701 52.1918 39.6701 52.1918 39.6742C52.1965 39.6825 52.2011 39.6948 52.2058 39.7031C52.2105 39.7113 52.2151 39.7196 52.2244 39.7278C52.2291 39.7361 52.2384 39.7443 52.2431 39.7526C52.2431 39.7526 52.2431 39.7567 52.2477 39.7567C52.2151 39.8145 52.1965 39.8846 52.2058 39.9547C52.2291 40.1404 52.42 40.2724 52.6296 40.2476C53.4491 40.161 54.0312 40.3301 54.3619 40.7509C54.9207 41.4646 54.7577 42.9001 53.966 44.2326C53.4026 45.1855 52.42 46.1921 51.2605 46.3777C51.3676 46.1096 51.4747 45.8332 51.5725 45.5485L52.0195 43.882C52.0661 43.7004 51.9404 43.5189 51.7355 43.4777C51.5306 43.4364 51.3257 43.5478 51.2791 43.7293L50.8367 45.3753C49.9007 48.0649 48.5363 49.9419 46.5199 51.2909C46.5153 51.2909 46.5153 51.295 46.5106 51.295C45.2067 52.2521 43.5582 52.7801 41.8632 52.7801C40.1728 52.776 38.5197 52.2479 37.2018 51.2785Z" fill="#3A643C"/>
<path d="M38.6916 40.9282C36.8755 42.1658 34.6635 40.9612 34.5658 40.9117C34.3888 40.8127 34.1513 40.8581 34.0395 41.0148C33.9278 41.1716 33.979 41.382 34.156 41.481C34.2305 41.5222 35.3947 42.1617 36.8196 42.1617C37.5647 42.1617 38.3796 41.9884 39.148 41.4645C39.3156 41.3531 39.3482 41.1386 39.2178 40.9901C39.0968 40.8457 38.8593 40.8168 38.6916 40.9282Z" fill="#3A643C"/>
<path d="M49.5693 41.4814C49.7462 41.3824 49.7975 41.1761 49.6857 41.0152C49.5739 40.8585 49.3411 40.809 49.1595 40.908C49.0663 40.9616 46.8544 42.1621 45.0336 40.9245C44.866 40.809 44.6285 40.8379 44.4981 40.9864C44.3677 41.1349 44.4003 41.3453 44.5679 41.4608C45.3363 41.9847 46.1512 42.1579 46.8963 42.1579C48.3306 42.1621 49.4994 41.5227 49.5693 41.4814Z" fill="#3A643C"/>
<path d="M26.705 40.3127C24.9541 40.1683 24.8144 37.6024 24.8144 37.5776C24.8051 37.3961 24.6374 37.2559 24.4325 37.2559C24.2276 37.2559 24.06 37.4002 24.0507 37.5776C24.0507 37.6024 23.911 40.1683 22.16 40.3127C21.9644 40.3292 21.8154 40.4735 21.8154 40.6468C21.8154 40.8201 21.9644 40.9644 22.16 40.981C23.6129 41.1006 24.0181 43.5716 24.0507 44.5122C24.0553 44.6937 24.2276 44.838 24.4325 44.838C24.6374 44.838 24.8051 44.6937 24.8144 44.5122C24.847 43.5716 25.2521 41.1006 26.705 40.981C26.9006 40.9644 27.0496 40.8201 27.0496 40.6468C27.0496 40.4735 26.9006 40.3292 26.705 40.3127ZM24.4325 42.4372C24.2043 41.7606 23.8365 41.08 23.2544 40.6757C23.8365 40.3415 24.2043 39.7929 24.4325 39.2484C24.6607 39.7929 25.0286 40.3415 25.6107 40.6757C25.0286 41.08 24.6607 41.7606 24.4325 42.4372Z" fill="#3A643C"/>
<path d="M61.8398 29.7482C60.0888 29.6038 59.9491 27.0379 59.9491 27.0132C59.9398 26.8317 59.7722 26.6914 59.5673 26.6914C59.3624 26.6914 59.1947 26.8358 59.1854 27.0132C59.1854 27.0379 59.0457 29.6038 57.2948 29.7482C57.0992 29.7647 56.9502 29.9091 56.9502 30.0824C56.9502 30.2556 57.0992 30.4 57.2948 30.4165C58.7477 30.5361 59.1528 33.0071 59.1854 33.9477C59.1901 34.1292 59.3624 34.2736 59.5673 34.2736C59.7722 34.2736 59.9398 34.1292 59.9491 33.9477C59.9817 33.0071 60.3869 30.5361 61.8398 30.4165C62.0353 30.4 62.1844 30.2556 62.1844 30.0824C62.1844 29.9091 62.0353 29.7647 61.8398 29.7482ZM59.5719 31.8727C59.3438 31.1962 58.9759 30.5155 58.3938 30.1112C58.9759 29.7771 59.3438 29.2284 59.5719 28.6839C59.8001 29.2284 60.168 29.7771 60.7501 30.1112C60.1633 30.5155 59.8001 31.1962 59.5719 31.8727Z" fill="#3A643C"/>
<path d="M29.4438 47.2468C28.6522 47.1808 28.587 45.9886 28.587 45.9762C28.5823 45.8566 28.4706 45.7617 28.3355 45.7617C28.2005 45.7617 28.0887 45.8566 28.084 45.9762C28.084 45.9886 28.0095 47.1808 27.2272 47.2468C27.0968 47.2592 26.999 47.3541 26.999 47.4696C26.999 47.5851 27.0968 47.6841 27.2272 47.6923C27.8791 47.746 28.0654 48.934 28.084 49.3466C28.0887 49.4662 28.2005 49.5652 28.3355 49.5652C28.4706 49.5652 28.587 49.4703 28.587 49.3466C28.6009 48.934 28.7919 47.746 29.4438 47.6923C29.5742 47.68 29.672 47.5851 29.672 47.4696C29.672 47.3541 29.5742 47.2592 29.4438 47.2468ZM28.3355 48.1337C28.2331 47.8862 28.084 47.6552 27.8791 47.4902C28.084 47.3499 28.2331 47.1561 28.3355 46.9539C28.438 47.1561 28.587 47.3499 28.7919 47.4902C28.587 47.6552 28.438 47.8862 28.3355 48.1337Z" fill="#3A643C"/>
</svg>
