<svg width="84" height="84" viewBox="0 0 84 84" fill="none" xmlns="http://www.w3.org/2000/svg">
<rect width="84" height="84" rx="42" fill="white"/>
<path d="M42 74C59.6731 74 74 59.6731 74 42C74 24.3269 59.6731 10 42 10C24.3269 10 10 24.3269 10 42C10 59.6731 24.3269 74 42 74Z" fill="#E0E8E2"/>
<rect x="44.6257" y="40.9316" width="6.96599" height="8.27211" rx="3.48299" fill="#FDF8E5"/>
<rect x="38.0952" y="47.0273" width="6.96599" height="3.48299" rx="1.7415" fill="#FDF8E5"/>
<path d="M46.8028 43.109C46.9066 43.109 47.0074 43.0718 47.0863 43.0038C47.1747 42.9281 47.2281 42.8225 47.2368 42.7066C47.2456 42.5905 47.2086 42.4781 47.1327 42.3899C47.0499 42.2934 46.9295 42.2383 46.8024 42.2383C46.6984 42.2383 46.5977 42.2757 46.5187 42.3435C46.3367 42.5001 46.3158 42.7755 46.4723 42.9577C46.5551 43.0538 46.6756 43.109 46.8028 43.109Z" fill="#3A643C"/>
<path d="M46.1499 46.1561C46.1866 46.1561 46.2409 46.1469 46.2915 46.1036C46.3356 46.0657 46.3623 46.013 46.3666 45.955C46.3711 45.8971 46.3526 45.8408 46.3146 45.7966C46.2731 45.7485 46.2129 45.7207 46.1492 45.7207C46.1125 45.7207 46.058 45.7298 46.0074 45.7734C45.9166 45.8517 45.9061 45.9894 45.9844 46.0804C46.0258 46.1284 46.0862 46.1561 46.1499 46.1561Z" fill="#3A643C"/>
<path d="M45.7146 48.3338C45.7513 48.3338 45.8056 48.3247 45.8562 48.2813C45.9003 48.2435 45.927 48.1907 45.9313 48.1327C45.9358 48.0749 45.9173 48.0186 45.8793 47.9743C45.8378 47.9263 45.7776 47.8984 45.7139 47.8984C45.6772 47.8984 45.6227 47.9076 45.5722 47.9512C45.4814 48.0294 45.4708 48.1671 45.5491 48.2581C45.5905 48.3062 45.6509 48.3338 45.7146 48.3338Z" fill="#3A643C"/>
<path d="M47.8907 47.0273C47.8541 47.0273 47.7996 47.0365 47.749 47.0801C47.6582 47.1583 47.6477 47.2961 47.7259 47.387C47.7674 47.4351 47.8278 47.4627 47.8915 47.4627C47.9282 47.4627 47.9825 47.4536 48.0331 47.4102C48.0771 47.3724 48.1038 47.3196 48.1082 47.2616C48.1126 47.2038 48.0941 47.1475 48.0562 47.1032C48.0147 47.0552 47.9544 47.0273 47.8907 47.0273Z" fill="#3A643C"/>
<path d="M48.3269 45.2869C48.3636 45.2869 48.4179 45.2778 48.4685 45.2344C48.5126 45.1966 48.5393 45.1439 48.5436 45.0858C48.5481 45.028 48.5296 44.9717 48.4916 44.9274C48.4501 44.8794 48.3899 44.8516 48.3262 44.8516C48.2895 44.8516 48.235 44.8607 48.1845 44.9043C48.0937 44.9825 48.0831 45.1203 48.1614 45.2112C48.2028 45.2593 48.2632 45.2869 48.3269 45.2869Z" fill="#3A643C"/>
<path d="M50.085 45.8662C50.085 45.9832 50.1669 46.081 50.2754 46.1035L50.3232 46.1084C50.4382 46.1084 50.5344 46.0253 50.5566 45.915L50.5615 45.8662C50.5615 45.7492 50.4796 45.6514 50.3711 45.6289L50.3232 45.624M50.085 45.8662H50.0615M50.085 45.8662C50.085 45.7325 50.1918 45.624 50.3232 45.624M50.085 45.8662H50.0615M50.3232 45.624V45.6084M50.3232 45.624V45.6084M50.3232 45.6084L50.3779 45.6133C50.5011 45.6386 50.585 45.748 50.585 45.8662C50.585 45.9844 50.5011 46.0938 50.3779 46.1191L50.3232 46.124L50.2686 46.1191C50.163 46.0975 50.0862 46.0138 50.0664 45.916L50.0615 45.8662M50.3232 45.6084C50.171 45.6084 50.0615 45.7313 50.0615 45.8662M44.1143 27.5V30.6416H47.4629V32.7891H43.876V36.3184L43.877 36.335V36.3379C43.877 36.3392 43.8778 36.3411 43.8779 36.3428C43.8782 36.3461 43.8785 36.3507 43.8789 36.3555C43.8797 36.3649 43.8811 36.377 43.8828 36.3916C43.8862 36.4214 43.8909 36.4622 43.8994 36.5107C43.9163 36.6075 43.946 36.7401 43.9971 36.8906C44.0981 37.1884 44.2922 37.581 44.6641 37.9004C45.2305 38.3921 46.003 38.5416 46.8701 38.4531L46.8711 38.4541C46.9604 38.4501 49.0072 38.3769 50.4775 39.7666V39.7676C51.388 40.6246 51.9039 41.8782 51.9512 43.5586V43.5762L51.9531 43.5928C51.953 43.5928 52.0858 45.1359 51.3564 46.8467C50.6371 48.5338 49.0623 50.4291 45.543 51.1523C45.4433 51.1723 44.2427 51.4039 42.7139 51.2383C41.1219 51.0657 39.2256 50.4695 37.8232 48.8115L37.3809 48.2881L37.0176 48.8682C36.9888 48.9141 36.9432 48.9867 36.9131 49.0439L36.9072 49.0547L36.9023 49.0664C36.7255 49.4478 36.6654 49.8791 36.6494 50.2725C36.6333 50.6689 36.6612 51.0705 36.6836 51.4004V51.4043L36.6855 51.4346C36.706 51.7677 36.7515 52.101 36.791 52.4033V52.4043C36.8974 53.2052 36.9853 53.9216 36.7832 54.6533V54.6543C36.5237 55.6032 35.9474 56.3871 35.1064 56.9346C35.0423 56.9074 34.9629 56.8738 34.8721 56.834C34.6211 56.7239 34.2896 56.5749 33.9492 56.4209C33.783 56.3457 33.6166 56.2689 33.457 56.1963C33.6525 56.1658 33.8378 56.121 34.002 56.0596L34.0029 56.0605C34.8508 55.7463 35.1788 54.9828 35.2979 54.2646C35.4162 53.5511 35.3547 52.743 35.3105 52.1289V52.1279L35.2842 51.7686V51.7656L35.2676 51.5186C35.1955 50.358 35.1276 49.2441 35.3623 48.166C35.5934 47.1034 35.9989 46.5789 36.4521 46.3828V46.3838C36.772 46.2461 37.1106 46.2687 37.4014 46.3477C37.6293 46.4096 37.8003 46.4998 37.8652 46.5361C38.1678 46.8508 38.5228 46.9331 38.834 46.8809C39.0911 46.8377 39.2806 46.71 39.3662 46.6436C39.6203 46.462 39.882 46.4399 40.1318 46.4941C40.3971 46.5518 40.633 46.6958 40.7656 46.8115L40.8027 46.8438L40.8457 46.8682C41.1614 47.0495 41.564 47.0531 41.8721 47.0137C42.1981 46.9719 42.5489 46.8646 42.8164 46.7012L42.8184 46.7002C43.9498 46.0023 44.759 44.7677 44.9951 43.4229L45.0342 43.1523C45.1862 41.859 44.7959 40.6407 43.9131 39.7461V39.7451L43.6328 39.4492C43.0193 38.7676 42.6768 38.1569 42.4863 37.7051C42.3772 37.4462 42.3178 37.2372 42.2852 37.0957C42.2688 37.025 42.2592 36.971 42.2539 36.9355C42.2518 36.9215 42.249 36.9104 42.248 36.9023L42.2461 33.2881V32.7891H38.6602V30.6416H42.0088V27.5H44.1143ZM39.4736 47.8174C39.2584 47.5506 38.8761 47.4576 38.5547 47.6289C38.194 47.821 38.0606 48.2672 38.2441 48.625C38.5033 49.1295 39.2511 49.9932 40.4277 49.9932C40.5143 49.9932 40.6022 49.9884 40.6914 49.9785L40.9629 49.9336C41.3668 49.8443 41.6095 49.4448 41.5254 49.0527L41.4805 48.9121C41.3451 48.6015 41.0058 48.4043 40.6455 48.4854V48.4844C40.2894 48.5633 40.0369 48.4461 39.8516 48.293C39.7526 48.2111 39.6778 48.1218 39.6279 48.0537L39.5547 47.9424L39.4736 47.8174ZM46.9629 45.0703C46.5633 44.5981 45.842 44.5125 45.3418 44.8633L45.2451 44.9395C44.7409 45.3807 44.6843 46.1512 45.1162 46.6621H45.1172C45.1766 46.7322 45.2433 46.7944 45.3154 46.8486C45.1179 46.888 44.929 46.977 44.7695 47.1162H44.7686C44.2643 47.5575 44.2086 48.3279 44.6406 48.8389V48.8398C44.8704 49.111 45.2076 49.2686 45.5645 49.2686C45.8564 49.2685 46.1378 49.1623 46.3574 48.9707C46.6024 48.7569 46.7504 48.4578 46.7744 48.1348C46.7983 47.812 46.6968 47.4948 46.4873 47.2471H46.4863C46.4273 47.1774 46.3613 47.1162 46.29 47.0635C46.4901 47.0209 46.678 46.9301 46.834 46.7939C46.842 46.787 46.8487 46.7786 46.8564 46.7715C46.6639 47.1632 46.6894 47.6417 46.9453 48.0146L47.0205 48.1133C47.2503 48.3846 47.5874 48.543 47.9443 48.543C48.2363 48.5429 48.5177 48.4367 48.7373 48.2451C48.9823 48.0313 49.1303 47.7323 49.1543 47.4092C49.1782 47.0864 49.0767 46.7692 48.8672 46.5215H48.8662C48.4401 46.0181 47.6489 45.9547 47.1494 46.3906H47.1484C47.1412 46.397 47.134 46.4037 47.127 46.4102C47.1782 46.3057 47.2153 46.1943 47.2354 46.0781L47.25 45.958C47.2709 45.6756 47.1956 45.3979 47.0361 45.167L46.9629 45.0703ZM50.4297 40.5732C50.178 40.2479 49.7104 40.1912 49.3887 40.4473L49.3877 40.4482C49.0702 40.7024 49.0174 41.1648 49.2646 41.4844L49.2656 41.4854C49.2788 41.5032 49.5605 41.8826 49.7852 42.4658C50.0055 43.0379 50.1577 43.7714 49.9863 44.5439L49.9482 44.6992C49.8999 44.8733 49.9208 45.0512 49.9912 45.2061C49.7488 45.3295 49.585 45.5809 49.585 45.8662C49.585 46.2685 49.9082 46.6084 50.3232 46.6084C50.7383 46.6084 51.0615 46.2685 51.0615 45.8662C51.0615 45.7569 51.0353 45.6531 50.9922 45.5586C51.1712 45.4672 51.3126 45.3052 51.3701 45.0986C51.709 43.8784 51.4819 42.7622 51.1768 41.959C50.8724 41.158 50.4784 40.6362 50.4297 40.5732ZM49.3428 44.1035C48.9169 43.5998 48.1249 43.5356 47.625 43.9727C47.1208 44.4139 47.0643 45.1834 47.4961 45.6943L47.4971 45.6953C47.7269 45.9664 48.0631 46.124 48.4199 46.124C48.7122 46.124 48.9941 46.018 49.2139 45.8262C49.4588 45.6124 49.6059 45.3132 49.6299 44.9902C49.6537 44.6676 49.5521 44.3511 49.3428 44.1035ZM46.7539 41.2539C46.4045 41.2539 46.0667 41.3817 45.8037 41.6113C45.1994 42.1395 45.1319 43.0636 45.6494 43.6758H45.6504C45.9256 44.001 46.328 44.1894 46.7539 44.1895C47.1029 44.1895 47.4402 44.0618 47.7031 43.832C47.996 43.5763 48.1723 43.2195 48.2012 42.832C48.2264 42.4928 48.1366 42.1595 47.9453 41.8828L47.8574 41.7686C47.5825 41.4433 47.1804 41.254 46.7539 41.2539Z" fill="#FDF8E5" stroke="#3A643C"/>
</svg>
