<svg width="90" height="87" viewBox="0 0 90 87" fill="none" xmlns="http://www.w3.org/2000/svg">
<g clip-path="url(#clip0_26_7343)">
<rect x="2" width="84" height="84" rx="42" fill="white"/>
<path d="M44 74C61.6731 74 76 59.6731 76 42C76 24.3269 61.6731 10 44 10C26.3269 10 12 24.3269 12 42C12 59.6731 26.3269 74 44 74Z" fill="#E0E8E2"/>
<ellipse cx="44.4524" cy="41.9531" rx="12.5" ry="12" fill="#FDF8E5"/>
<path d="M55.9268 45.374C54.4387 50.5855 49.6391 54.4043 43.9521 54.4043C42.8416 54.4043 41.7652 54.2576 40.7402 53.9844L40.9834 53.9004L43.0557 53.1748L43.417 53.0479L43.3887 52.666L43.3369 51.96L44.2793 51.5566L44.1836 51.2344L45.3711 52.7236V52.7246C45.7161 53.1682 46.3105 53.2549 46.7744 52.9766L46.7861 52.9688L48.5732 51.8291L49.1406 51.4668L49.1348 51.4619L49.167 51.4424L52.457 49.3701L52.4678 49.3623C52.8684 49.095 53.0958 48.563 52.8564 48.0508H52.8574L52.2246 46.5693L53.0781 46.04L53.6289 46.5049L53.9199 46.751L54.2344 46.5352L55.9268 45.374ZM37.0352 52.0566L40.1006 52.5439L40.3311 53.541L40.4111 53.8916C39.0163 53.4781 37.724 52.8267 36.5801 51.9844L37.0352 52.0566ZM43.9521 29.5C50.2195 29.5 55.4095 34.1383 56.2764 40.167L55.709 39.915L55.2129 39.6943L55.0342 40.208L54.1768 42.665L52.9824 42.5684L52.7676 42.5498L53.04 41.3652L53.041 41.3613C53.1397 40.9171 52.9417 40.4867 52.6104 40.25L52.5928 40.2383L47.5156 36.9229H47.5146C47.2779 36.7631 47.0053 36.7613 46.8301 36.7832C46.6366 36.8074 46.444 36.8738 46.2949 36.959L46.2939 36.96L44.1982 38.1621C44.6541 37.4257 44.9189 36.559 44.9189 35.6318C44.9189 32.9725 42.7521 30.8058 40.0928 30.8057C37.4334 30.8057 35.2666 32.9725 35.2666 35.6318C35.2667 38.2911 37.4335 40.458 40.0928 40.458C40.1566 40.458 40.22 40.4546 40.2832 40.4521L38.1084 41.6992C37.78 41.887 37.5274 42.271 37.5742 42.7246V42.7256L38.1445 48.709V48.7168C38.1939 49.1611 38.4974 49.4942 38.8984 49.6279L38.9219 49.6357H38.9229C38.9235 49.6359 38.9247 49.6364 38.9258 49.6367L38.9795 49.6514C39.0175 49.662 39.0737 49.6775 39.1445 49.6973C39.2865 49.7369 39.4898 49.7945 39.7334 49.8623C39.9465 49.9216 40.191 49.9888 40.4531 50.0615L39.9727 50.8418L37.4668 50.0742L36.9414 49.9141L36.8311 50.4521L36.624 51.4629L36.5244 51.9443C33.4761 49.6738 31.5 46.0425 31.5 41.9521C31.5001 35.0788 37.0788 29.5001 43.9521 29.5ZM41.9609 51.0469L41.9277 51.3193L41.8721 51.7598L41.1895 51.8418L41.5479 51.0068L41.9609 51.0469ZM45.6611 43.4316C46.5414 42.9706 47.1698 42.9249 47.6064 43.0449C48.0408 43.1644 48.3781 43.4733 48.627 43.9121C48.878 44.3548 49.0198 44.9014 49.0615 45.415C49.1044 45.9431 49.0357 46.3578 48.9414 46.5547L48.9404 46.5566C48.6264 47.2196 48.2928 47.4845 48.0264 47.585C47.7568 47.6865 47.4562 47.6578 47.1348 47.5303C46.8117 47.4021 46.5103 47.1902 46.2812 46.999C46.1987 46.9301 46.1301 46.8637 46.0742 46.8105C46.1429 46.8205 46.1901 46.8329 46.2793 46.8496C46.317 46.8567 46.3826 46.868 46.4521 46.8691C46.5073 46.8701 46.654 46.8665 46.7969 46.7686L46.7979 46.7695C46.8011 46.7673 46.8034 46.7639 46.8066 46.7617C46.8098 46.7595 46.8143 46.7582 46.8174 46.7559L46.8164 46.7549C47.4096 46.3373 47.4657 45.6034 47.2607 45.082C47.0512 44.549 46.509 44.0745 45.7607 44.1963C45.756 44.1787 45.7492 44.1566 45.7432 44.1289C45.7246 44.0433 45.6892 43.8273 45.626 43.6592C45.6057 43.6054 45.5787 43.5485 45.5459 43.4912L45.6611 43.4316ZM54.2764 44.249L53.7969 44.7705L53.3896 44.5459L53.1699 44.4238L53.3926 44.0488L54.2764 44.249ZM56.4043 41.9521C56.4043 42.8398 56.3106 43.7058 56.1338 44.541L55.4697 43.7754L55.4688 43.7744L56.4033 41.9502L56.4043 41.9521ZM40.8262 47.2334L40.8223 47.2031L40.7959 46.9873L41.2822 47.5898L40.9033 47.4814L40.8877 47.4775L40.8555 47.4658C40.8489 47.4532 40.8262 47.3994 40.8262 47.2627V47.2334Z" fill="#FDF8E5" stroke="#3A643C"/>
</g>
<defs>
<clipPath id="clip0_26_7343">
<rect width="90" height="87" fill="white"/>
</clipPath>
</defs>
</svg>
