<svg width="84" height="84" viewBox="0 0 84 84" fill="none" xmlns="http://www.w3.org/2000/svg">
<rect width="84" height="84" rx="42" fill="white"/>
<path d="M42 74C59.6731 74 74 59.6731 74 42C74 24.3269 59.6731 10 42 10C24.3269 10 10 24.3269 10 42C10 59.6731 24.3269 74 42 74Z" fill="#E0E8E2"/>
<rect x="43" y="52" width="4" height="4" fill="#FDF8E5"/>
<rect x="43" y="54" width="4" height="4" fill="#FDF8E5"/>
<rect x="40" y="54" width="4" height="4" fill="#FDF8E5"/>
<rect x="37" y="54" width="4" height="4" fill="#FDF8E5"/>
<rect x="37" y="56" width="4" height="4" fill="#FDF8E5"/>
<circle cx="49" cy="37" r="6" fill="#FDF8E5"/>
<rect x="27" y="37" width="20" height="18" rx="6" fill="#FDF8E5"/>
<mask id="path-10-inside-1_26_7328" fill="white">
<path d="M56 37.3213C56.0001 36.2042 55.7242 35.1044 55.1966 34.1197C54.6691 33.135 53.9064 32.2959 52.9763 31.6772C52.0462 31.0584 50.9776 30.6791 49.8656 30.5731C48.7535 30.467 47.6325 30.6374 46.6022 31.0692V29.4467C46.6022 28.2957 46.145 27.1918 45.3311 26.3779C44.5172 25.564 43.4134 25.1068 42.2623 25.1067H38.0899C37.9555 25.1067 37.8224 25.0803 37.6982 25.0288C37.574 24.9774 37.4612 24.902 37.3662 24.807C37.2711 24.7119 37.1957 24.5991 37.1443 24.4749C37.0929 24.3507 37.0664 24.2176 37.0664 24.0832V22H34.6344V24.937C34.6344 25.294 34.7047 25.6476 34.8414 25.9775C34.978 26.3074 35.1783 26.6071 35.4308 26.8596C35.6833 27.1121 35.983 27.3123 36.3129 27.449C36.6428 27.5856 36.9963 27.656 37.3534 27.656V32.129C37.3534 32.9603 37.0231 33.7576 36.4353 34.3455C35.8474 34.9333 35.0501 35.2636 34.2188 35.2636H33.9218C33.23 35.2635 32.5517 35.4551 31.9623 35.8173C31.3728 36.1794 30.8952 36.6979 30.5827 37.315C30.1027 37.0874 29.5629 37.0181 29.041 37.117C28.5191 37.2159 28.0421 37.478 27.6787 37.8654C27.3154 38.2528 27.0844 38.7456 27.019 39.2727C26.9537 39.7999 27.0574 40.3342 27.3153 40.7986C27.0776 41.2266 26.9705 41.7149 27.0072 42.2031C27.0439 42.6913 27.2228 43.158 27.5218 43.5457C27.1836 43.9844 27.0002 44.5227 27.0002 45.0766C27.0002 45.6305 27.1836 46.1688 27.5218 46.6075C27.1836 47.0462 27.0002 47.5845 27.0002 48.1384C27.0002 48.6922 27.1836 49.2305 27.5218 49.6692C27.2504 50.0213 27.0774 50.4392 27.0206 50.88C26.9638 51.3209 27.0251 51.769 27.1984 52.1784C27.3716 52.5878 27.6505 52.9438 28.0065 53.21C28.3625 53.4762 28.7829 53.643 29.2246 53.6934C29.4619 53.7195 29.7017 53.7119 29.9368 53.6709C30.121 54.3967 30.5416 55.0405 31.1322 55.5007C31.7229 55.9609 32.45 56.2113 33.1988 56.2124H36.5263C36.5227 56.2436 36.5192 56.2749 36.5168 56.3064C36.4797 56.7553 36.5652 57.2059 36.7642 57.61C36.6243 57.8974 36.5404 58.209 36.5169 58.5278C36.5168 58.5307 36.516 58.5399 36.5158 58.5427C36.5127 58.5901 36.5106 58.6377 36.5101 58.6844C36.5094 58.6983 36.5089 58.7123 36.5089 58.7265C36.5089 58.7493 36.5099 58.7719 36.5113 58.7944L36.5119 58.8058C36.5126 58.8245 36.5133 58.8431 36.5143 58.86C36.541 59.3997 36.7429 59.916 37.0893 60.3308C37.1132 60.3595 37.1399 60.3858 37.1689 60.4092C37.498 60.7693 37.9247 61.0258 38.3971 61.1476C38.8694 61.2694 39.367 61.2512 39.8291 61.0952C40.2913 60.9392 40.6981 60.6522 41 60.2691C41.302 59.886 41.4859 59.4233 41.5295 58.9375C41.892 59.0301 42.2705 59.0408 42.6376 58.9688C43.0046 58.8968 43.3511 58.7439 43.6517 58.5212C44.104 58.8572 44.6564 59.0311 45.2197 59.0149C45.7829 58.9986 46.3243 58.7931 46.7566 58.4315C47.1888 58.07 47.4867 57.5734 47.6022 57.0218C47.7177 56.4703 47.6441 55.8959 47.3933 55.3913C47.6026 54.97 47.6893 54.4984 47.6434 54.0302C47.5975 53.562 47.421 53.1162 47.1338 52.7436C47.4728 52.3038 47.6562 51.764 47.6554 51.2087C47.6545 50.6535 47.4694 50.1143 47.129 49.6756C47.4694 49.2369 47.6545 48.6976 47.6554 48.1424C47.6563 47.5871 47.4728 47.0473 47.1338 46.6075C47.4372 46.2147 47.6168 45.7405 47.6499 45.2453C47.6829 44.7501 47.5677 44.2562 47.3191 43.8266C48.914 44.2946 50.6253 44.1587 52.1262 43.4448L54.7838 47.5303L55.739 46.9089L53.1106 42.8683C54.0025 42.2439 54.7308 41.4138 55.2338 40.4482C55.7368 39.4826 55.9996 38.41 56 37.3213ZM29.3502 52.5608C29.1054 52.5322 28.8728 52.4382 28.677 52.2884C28.4812 52.1387 28.3295 51.939 28.2378 51.7102C28.1461 51.4814 28.1179 51.2321 28.1561 50.9886C28.1943 50.7451 28.2975 50.5164 28.4548 50.3267C28.6085 50.1425 28.6927 49.9102 28.6929 49.6703C28.6931 49.4304 28.6094 49.198 28.4561 49.0134C28.2518 48.7676 28.1398 48.458 28.1397 48.1384C28.1382 47.8185 28.2504 47.5084 28.4561 47.2634C28.6096 47.0793 28.6936 46.8472 28.6936 46.6075C28.6936 46.3678 28.6096 46.1357 28.4561 45.9516C28.2516 45.7059 28.1397 45.3963 28.1397 45.0767C28.1397 44.757 28.2516 44.4474 28.4561 44.2017C28.6096 44.0176 28.6936 43.7855 28.6936 43.5458C28.6936 43.3061 28.6096 43.074 28.4561 42.8899C28.2518 42.6441 28.1398 42.3345 28.1397 42.0149C28.1386 41.7021 28.2458 41.3986 28.4431 41.1558C28.5249 41.0545 28.5695 40.9282 28.5695 40.798C28.5695 40.6677 28.5249 40.5414 28.4431 40.4401C28.217 40.1572 28.1121 39.7963 28.1515 39.4364C28.1908 39.0764 28.3712 38.7467 28.653 38.5193C28.9349 38.292 29.2954 38.1856 29.6555 38.2234C30.0156 38.2612 30.3461 38.4401 30.5747 38.721C30.6281 38.7871 30.6956 38.8404 30.7723 38.877C30.8489 38.9136 30.9328 38.9326 31.0177 38.9326C31.1027 38.9326 31.1866 38.9136 31.2632 38.877C31.3399 38.8404 31.4074 38.7871 31.4608 38.721C31.5747 38.5798 31.7156 38.4626 31.8752 38.3763C32.0348 38.29 32.21 38.2362 32.3905 38.2183C32.5711 38.2003 32.7534 38.2184 32.9269 38.2716C33.1004 38.3247 33.2616 38.4119 33.4011 38.5279C33.5852 38.6814 33.8173 38.7654 34.057 38.7654C34.2967 38.7655 34.5288 38.6814 34.713 38.528C34.9814 38.3047 35.3249 38.1924 35.6734 38.2142C36.0218 38.2359 36.3488 38.39 36.5873 38.6449C36.6838 38.7482 36.8004 38.8305 36.93 38.8868C37.0596 38.9431 37.1994 38.9721 37.3407 38.9721C37.482 38.9721 37.6218 38.9431 37.7514 38.8868C37.881 38.8305 37.9976 38.7482 38.094 38.6449C38.3326 38.39 38.6595 38.2359 39.008 38.2141C39.3564 38.1924 39.7 38.3047 39.9684 38.528C40.1526 38.6814 40.3846 38.7654 40.6243 38.7654C40.864 38.7654 41.0961 38.6814 41.2802 38.528C41.448 38.3872 41.6475 38.2892 41.8615 38.2426C42.0755 38.1959 42.2976 38.2019 42.5088 38.26C42.6164 39.0338 42.858 39.7831 43.2228 40.474C43.1854 40.4963 43.1508 40.523 43.1195 40.5533C42.8779 40.7931 42.5556 40.9343 42.2155 40.9492C41.8754 40.9642 41.542 40.8518 41.2803 40.6341C41.0961 40.4807 40.864 40.3967 40.6243 40.3967C40.3847 40.3967 40.1526 40.4807 39.9684 40.6341C39.7 40.8574 39.3565 40.9696 39.008 40.9479C38.6596 40.9262 38.3326 40.7721 38.094 40.5172C37.9976 40.414 37.881 40.3316 37.7514 40.2753C37.6218 40.219 37.482 40.1899 37.3408 40.1899C37.1995 40.1899 37.0597 40.219 36.9301 40.2753C36.8005 40.3316 36.6839 40.4139 36.5874 40.5172C36.3489 40.7721 36.0219 40.9261 35.6735 40.9479C35.325 40.9697 34.9815 40.8574 34.7131 40.6342C34.5289 40.4807 34.2968 40.3967 34.0571 40.3966C33.8174 40.3966 33.5853 40.4806 33.4012 40.6341C33.1246 40.8643 32.7683 40.9762 32.4097 40.9456C32.0512 40.915 31.7191 40.7443 31.4855 40.4705C31.389 40.3579 31.2525 40.2874 31.1049 40.2738C30.9572 40.2603 30.8102 40.3048 30.6948 40.398C30.5795 40.4911 30.505 40.6255 30.4872 40.7727C30.4693 40.9199 30.5096 41.0682 30.5993 41.1862C30.7868 41.4325 30.8852 41.735 30.8785 42.0445C30.8718 42.3539 30.7603 42.6519 30.5623 42.8899C30.4089 43.074 30.3249 43.3061 30.3249 43.5458C30.3249 43.7855 30.4089 44.0176 30.5623 44.2017C30.7668 44.4474 30.8788 44.757 30.8788 45.0766C30.8788 45.3963 30.7668 45.7059 30.5623 45.9516C30.4089 46.1357 30.3249 46.3678 30.3249 46.6075C30.3249 46.8472 30.4089 47.0793 30.5623 47.2634C30.7681 47.5084 30.8802 47.8185 30.8787 48.1384C30.8786 48.458 30.7667 48.7676 30.5623 49.0133C30.4089 49.1975 30.3249 49.4296 30.3249 49.6693C30.3249 49.9089 30.4089 50.141 30.5623 50.3252C30.7372 50.5357 30.845 50.7938 30.8718 51.0661C30.8987 51.3385 30.8433 51.6126 30.7128 51.8532C30.5824 52.0938 30.3829 52.2898 30.14 52.4159C29.8971 52.542 29.622 52.5925 29.3502 52.5608ZM33.1988 55.0729C32.6724 55.0722 32.1632 54.8853 31.7614 54.5452C31.3596 54.2052 31.091 53.734 31.0032 53.215C31.0647 53.1695 31.1247 53.1215 31.1822 53.0701C31.6544 52.6477 31.9493 52.0623 32.0076 51.4315C32.066 50.8006 31.8835 50.1711 31.4968 49.6693C31.7374 49.3559 31.9007 48.9901 31.9733 48.6017H40.4953V47.4621H31.9233C31.8372 47.1525 31.6924 46.8624 31.4968 46.6075C31.835 46.1688 32.0184 45.6305 32.0184 45.0766C32.0184 44.5227 31.835 43.9844 31.4968 43.5457C31.8298 43.1132 32.0129 42.584 32.0183 42.0382C32.3719 42.1112 32.7372 42.1071 33.089 42.026C33.4409 41.9449 33.7711 41.7889 34.0571 41.5685C34.5358 41.9374 35.1315 42.1211 35.7349 42.0858C36.3382 42.0504 36.9084 41.7984 37.3407 41.3761C37.773 41.7984 38.3433 42.0504 38.9466 42.0858C39.5499 42.1211 40.1457 41.9374 40.6244 41.5685C40.907 41.7859 41.2327 41.9407 41.5798 42.0227C41.9268 42.1046 42.2873 42.1119 42.6374 42.044C42.6441 42.5878 42.827 43.1148 43.1588 43.5457C43.1313 43.5814 43.1065 43.6187 43.0811 43.6557H34.5043V44.7952H42.6551C42.5766 45.4422 42.7577 46.0939 43.1588 46.6075C42.8198 47.0473 42.6364 47.5871 42.6372 48.1423C42.6381 48.6976 42.8232 49.2368 43.1636 49.6755C42.8227 50.1155 42.6376 50.6561 42.6372 51.2127C42.6372 51.2307 42.6391 51.2485 42.6395 51.2665H34.5043V52.406H42.94C43.0037 52.5242 43.0769 52.6371 43.1588 52.7435C42.8686 53.1204 42.6914 53.572 42.6477 54.0456C42.2883 53.9744 41.9177 53.9825 41.5618 54.0695C41.2059 54.1565 40.8733 54.3202 40.5873 54.5492C40.3191 54.3341 40.0095 54.1765 39.6778 54.086C39.3461 53.9956 38.9994 53.9742 38.6591 54.0233C38.3188 54.0725 37.9922 54.1909 37.6997 54.3715C37.4071 54.552 37.1547 54.7908 36.9582 55.0729L33.1988 55.0729ZM46.1994 44.2017C46.4039 44.4474 46.5158 44.7569 46.5158 45.0766C46.5158 45.3963 46.4039 45.7059 46.1994 45.9516C46.046 46.1357 45.9619 46.3678 45.9619 46.6075C45.9619 46.8472 46.046 47.0793 46.1994 47.2634C46.4035 47.5088 46.5155 47.8178 46.5158 48.1369C46.5162 48.4561 46.4049 48.7653 46.2013 49.0111C46.0465 49.198 45.9618 49.4329 45.9618 49.6755C45.9618 49.9182 46.0465 50.1532 46.2013 50.34C46.4049 50.5858 46.5162 50.895 46.5158 51.2142C46.5155 51.5333 46.4035 51.8423 46.1994 52.0877C46.0459 52.2718 45.9619 52.5039 45.9619 52.7436C45.9619 52.9833 46.0459 53.2154 46.1994 53.3995C46.3918 53.6307 46.5027 53.919 46.5147 54.2195C46.5268 54.5201 46.4394 54.8163 46.2661 55.0622C46.1983 55.1583 46.1619 55.273 46.1619 55.3906C46.1619 55.5082 46.1983 55.623 46.2661 55.719C46.4512 55.98 46.5381 56.298 46.5116 56.6169C46.4897 56.8886 46.3871 57.1477 46.2171 57.3608C46.0471 57.574 45.8174 57.7315 45.5573 57.8133C45.2972 57.8951 45.0186 57.8974 44.7572 57.8199C44.4958 57.7425 44.2635 57.5887 44.09 57.3784C44.0365 57.3137 43.9694 57.2616 43.8935 57.2259C43.8175 57.1902 43.7347 57.1716 43.6507 57.1716C43.5668 57.1716 43.4839 57.1902 43.408 57.2259C43.3321 57.2616 43.265 57.3137 43.2115 57.3784C43.0898 57.526 42.9386 57.6465 42.7675 57.732C42.5964 57.8175 42.4093 57.8662 42.2182 57.8749C42.0271 57.8836 41.8364 57.8521 41.6582 57.7825C41.4801 57.7129 41.3185 57.6067 41.1839 57.4708C41.089 57.3752 40.9634 57.3163 40.8292 57.3045C40.6951 57.2928 40.5611 57.3289 40.451 57.4065C40.341 57.4842 40.262 57.5983 40.2281 57.7286C40.1942 57.8589 40.2075 57.9971 40.2657 58.1185C40.3547 58.3038 40.4006 58.5068 40.4 58.7123C40.4001 58.9943 40.3135 59.2695 40.1519 59.5006C39.9903 59.7317 39.7615 59.9075 39.4966 60.0042C39.2318 60.101 38.9435 60.1139 38.671 60.0414C38.3985 59.9688 38.155 59.8142 37.9733 59.5985C37.956 59.5781 37.9374 59.559 37.9175 59.5412C37.7574 59.3252 37.665 59.0666 37.6522 58.7981L37.6508 58.7684C37.6505 58.7561 37.6499 58.7439 37.6488 58.7275C37.6492 58.7194 37.6494 58.7111 37.6495 58.7023C37.6497 58.6736 37.6511 58.6452 37.6529 58.6192L37.6536 58.609C37.6715 58.3663 37.7537 58.1327 37.8919 57.9324C37.9577 57.8371 37.9929 57.7241 37.9928 57.6083C37.9927 57.4925 37.9574 57.3795 37.8914 57.2843C37.7109 57.0248 37.6265 56.7104 37.6529 56.3954C37.6756 56.1165 37.7831 55.8514 37.961 55.6355C38.139 55.4197 38.3787 55.2635 38.6481 55.188C38.9174 55.1125 39.2034 55.1213 39.4676 55.2132C39.7318 55.3051 39.9615 55.4757 40.1259 55.7021C40.1787 55.7748 40.248 55.8339 40.3281 55.8746C40.4081 55.9154 40.4967 55.9366 40.5865 55.9366C40.6764 55.9366 40.7649 55.9154 40.845 55.8746C40.925 55.8339 40.9943 55.7748 41.0472 55.7021C41.1745 55.5275 41.3412 55.3854 41.5337 55.2872C41.7262 55.1891 41.9391 55.1376 42.1552 55.1371C42.4567 55.1363 42.7498 55.2358 42.9883 55.42C43.0868 55.4957 43.2073 55.537 43.3314 55.5379C43.4556 55.5387 43.5766 55.499 43.6761 55.4247C43.7756 55.3505 43.8481 55.2458 43.8826 55.1265C43.9172 55.0073 43.9118 54.88 43.8673 54.7641C43.7803 54.537 43.7554 54.2909 43.7951 54.0511C43.8348 53.8112 43.9377 53.5863 44.0932 53.3994C44.2466 53.2153 44.3307 52.9832 44.3307 52.7435C44.3307 52.5038 44.2466 52.2717 44.0932 52.0876C43.889 51.8422 43.7771 51.5332 43.7767 51.2141C43.7764 50.8949 43.8877 50.5856 44.0913 50.3399C44.2461 50.153 44.3308 49.918 44.3308 49.6754C44.3308 49.4328 44.2461 49.1978 44.0913 49.011C43.8877 48.7652 43.7764 48.456 43.7767 48.1368C43.7771 47.8176 43.889 47.5086 44.0932 47.2633C44.2466 47.0792 44.3307 46.8471 44.3307 46.6074C44.3307 46.3677 44.2466 46.1356 44.0932 45.9515C43.8887 45.7058 43.7767 45.3962 43.7767 45.0765C43.7767 44.7569 43.8887 44.4473 44.0932 44.2016C44.2467 44.0175 44.3307 43.7854 44.3307 43.5457C44.3307 43.306 44.2467 43.0739 44.0932 42.8898C43.9334 42.6981 43.8293 42.4663 43.792 42.2196C43.7548 41.9729 43.7859 41.7207 43.882 41.4904C44.4568 42.2261 45.1764 42.836 45.9963 43.2825C45.9542 43.4408 45.9507 43.6069 45.986 43.7668C46.0213 43.9267 46.0945 44.0759 46.1994 44.2017ZM43.5819 37.3213C43.5819 36.2059 43.9127 35.1156 44.5323 34.1883C45.152 33.2609 46.0327 32.5381 47.0631 32.1113C48.0936 31.6844 49.2275 31.5728 50.3214 31.7904C51.4153 32.0079 52.4201 32.545 53.2088 33.3337C53.9974 34.1224 54.5345 35.1272 54.7521 36.2211C54.9697 37.315 54.858 38.4489 54.4312 39.4793C54.0044 40.5098 53.2816 41.3905 52.3542 42.0102C51.4268 42.6298 50.3365 42.9605 49.2212 42.9605C47.7261 42.9589 46.2927 42.3642 45.2355 41.307C44.1783 40.2498 43.5836 38.8164 43.5819 37.3213Z"/>
</mask>
<path d="M56 37.3213C56.0001 36.2042 55.7242 35.1044 55.1966 34.1197C54.6691 33.135 53.9064 32.2959 52.9763 31.6772C52.0462 31.0584 50.9776 30.6791 49.8656 30.5731C48.7535 30.467 47.6325 30.6374 46.6022 31.0692V29.4467C46.6022 28.2957 46.145 27.1918 45.3311 26.3779C44.5172 25.564 43.4134 25.1068 42.2623 25.1067H38.0899C37.9555 25.1067 37.8224 25.0803 37.6982 25.0288C37.574 24.9774 37.4612 24.902 37.3662 24.807C37.2711 24.7119 37.1957 24.5991 37.1443 24.4749C37.0929 24.3507 37.0664 24.2176 37.0664 24.0832V22H34.6344V24.937C34.6344 25.294 34.7047 25.6476 34.8414 25.9775C34.978 26.3074 35.1783 26.6071 35.4308 26.8596C35.6833 27.1121 35.983 27.3123 36.3129 27.449C36.6428 27.5856 36.9963 27.656 37.3534 27.656V32.129C37.3534 32.9603 37.0231 33.7576 36.4353 34.3455C35.8474 34.9333 35.0501 35.2636 34.2188 35.2636H33.9218C33.23 35.2635 32.5517 35.4551 31.9623 35.8173C31.3728 36.1794 30.8952 36.6979 30.5827 37.315C30.1027 37.0874 29.5629 37.0181 29.041 37.117C28.5191 37.2159 28.0421 37.478 27.6787 37.8654C27.3154 38.2528 27.0844 38.7456 27.019 39.2727C26.9537 39.7999 27.0574 40.3342 27.3153 40.7986C27.0776 41.2266 26.9705 41.7149 27.0072 42.2031C27.0439 42.6913 27.2228 43.158 27.5218 43.5457C27.1836 43.9844 27.0002 44.5227 27.0002 45.0766C27.0002 45.6305 27.1836 46.1688 27.5218 46.6075C27.1836 47.0462 27.0002 47.5845 27.0002 48.1384C27.0002 48.6922 27.1836 49.2305 27.5218 49.6692C27.2504 50.0213 27.0774 50.4392 27.0206 50.88C26.9638 51.3209 27.0251 51.769 27.1984 52.1784C27.3716 52.5878 27.6505 52.9438 28.0065 53.21C28.3625 53.4762 28.7829 53.643 29.2246 53.6934C29.4619 53.7195 29.7017 53.7119 29.9368 53.6709C30.121 54.3967 30.5416 55.0405 31.1322 55.5007C31.7229 55.9609 32.45 56.2113 33.1988 56.2124H36.5263C36.5227 56.2436 36.5192 56.2749 36.5168 56.3064C36.4797 56.7553 36.5652 57.2059 36.7642 57.61C36.6243 57.8974 36.5404 58.209 36.5169 58.5278C36.5168 58.5307 36.516 58.5399 36.5158 58.5427C36.5127 58.5901 36.5106 58.6377 36.5101 58.6844C36.5094 58.6983 36.5089 58.7123 36.5089 58.7265C36.5089 58.7493 36.5099 58.7719 36.5113 58.7944L36.5119 58.8058C36.5126 58.8245 36.5133 58.8431 36.5143 58.86C36.541 59.3997 36.7429 59.916 37.0893 60.3308C37.1132 60.3595 37.1399 60.3858 37.1689 60.4092C37.498 60.7693 37.9247 61.0258 38.3971 61.1476C38.8694 61.2694 39.367 61.2512 39.8291 61.0952C40.2913 60.9392 40.6981 60.6522 41 60.2691C41.302 59.886 41.4859 59.4233 41.5295 58.9375C41.892 59.0301 42.2705 59.0408 42.6376 58.9688C43.0046 58.8968 43.3511 58.7439 43.6517 58.5212C44.104 58.8572 44.6564 59.0311 45.2197 59.0149C45.7829 58.9986 46.3243 58.7931 46.7566 58.4315C47.1888 58.07 47.4867 57.5734 47.6022 57.0218C47.7177 56.4703 47.6441 55.8959 47.3933 55.3913C47.6026 54.97 47.6893 54.4984 47.6434 54.0302C47.5975 53.562 47.421 53.1162 47.1338 52.7436C47.4728 52.3038 47.6562 51.764 47.6554 51.2087C47.6545 50.6535 47.4694 50.1143 47.129 49.6756C47.4694 49.2369 47.6545 48.6976 47.6554 48.1424C47.6563 47.5871 47.4728 47.0473 47.1338 46.6075C47.4372 46.2147 47.6168 45.7405 47.6499 45.2453C47.6829 44.7501 47.5677 44.2562 47.3191 43.8266C48.914 44.2946 50.6253 44.1587 52.1262 43.4448L54.7838 47.5303L55.739 46.9089L53.1106 42.8683C54.0025 42.2439 54.7308 41.4138 55.2338 40.4482C55.7368 39.4826 55.9996 38.41 56 37.3213ZM29.3502 52.5608C29.1054 52.5322 28.8728 52.4382 28.677 52.2884C28.4812 52.1387 28.3295 51.939 28.2378 51.7102C28.1461 51.4814 28.1179 51.2321 28.1561 50.9886C28.1943 50.7451 28.2975 50.5164 28.4548 50.3267C28.6085 50.1425 28.6927 49.9102 28.6929 49.6703C28.6931 49.4304 28.6094 49.198 28.4561 49.0134C28.2518 48.7676 28.1398 48.458 28.1397 48.1384C28.1382 47.8185 28.2504 47.5084 28.4561 47.2634C28.6096 47.0793 28.6936 46.8472 28.6936 46.6075C28.6936 46.3678 28.6096 46.1357 28.4561 45.9516C28.2516 45.7059 28.1397 45.3963 28.1397 45.0767C28.1397 44.757 28.2516 44.4474 28.4561 44.2017C28.6096 44.0176 28.6936 43.7855 28.6936 43.5458C28.6936 43.3061 28.6096 43.074 28.4561 42.8899C28.2518 42.6441 28.1398 42.3345 28.1397 42.0149C28.1386 41.7021 28.2458 41.3986 28.4431 41.1558C28.5249 41.0545 28.5695 40.9282 28.5695 40.798C28.5695 40.6677 28.5249 40.5414 28.4431 40.4401C28.217 40.1572 28.1121 39.7963 28.1515 39.4364C28.1908 39.0764 28.3712 38.7467 28.653 38.5193C28.9349 38.292 29.2954 38.1856 29.6555 38.2234C30.0156 38.2612 30.3461 38.4401 30.5747 38.721C30.6281 38.7871 30.6956 38.8404 30.7723 38.877C30.8489 38.9136 30.9328 38.9326 31.0177 38.9326C31.1027 38.9326 31.1866 38.9136 31.2632 38.877C31.3399 38.8404 31.4074 38.7871 31.4608 38.721C31.5747 38.5798 31.7156 38.4626 31.8752 38.3763C32.0348 38.29 32.21 38.2362 32.3905 38.2183C32.5711 38.2003 32.7534 38.2184 32.9269 38.2716C33.1004 38.3247 33.2616 38.4119 33.4011 38.5279C33.5852 38.6814 33.8173 38.7654 34.057 38.7654C34.2967 38.7655 34.5288 38.6814 34.713 38.528C34.9814 38.3047 35.3249 38.1924 35.6734 38.2142C36.0218 38.2359 36.3488 38.39 36.5873 38.6449C36.6838 38.7482 36.8004 38.8305 36.93 38.8868C37.0596 38.9431 37.1994 38.9721 37.3407 38.9721C37.482 38.9721 37.6218 38.9431 37.7514 38.8868C37.881 38.8305 37.9976 38.7482 38.094 38.6449C38.3326 38.39 38.6595 38.2359 39.008 38.2141C39.3564 38.1924 39.7 38.3047 39.9684 38.528C40.1526 38.6814 40.3846 38.7654 40.6243 38.7654C40.864 38.7654 41.0961 38.6814 41.2802 38.528C41.448 38.3872 41.6475 38.2892 41.8615 38.2426C42.0755 38.1959 42.2976 38.2019 42.5088 38.26C42.6164 39.0338 42.858 39.7831 43.2228 40.474C43.1854 40.4963 43.1508 40.523 43.1195 40.5533C42.8779 40.7931 42.5556 40.9343 42.2155 40.9492C41.8754 40.9642 41.542 40.8518 41.2803 40.6341C41.0961 40.4807 40.864 40.3967 40.6243 40.3967C40.3847 40.3967 40.1526 40.4807 39.9684 40.6341C39.7 40.8574 39.3565 40.9696 39.008 40.9479C38.6596 40.9262 38.3326 40.7721 38.094 40.5172C37.9976 40.414 37.881 40.3316 37.7514 40.2753C37.6218 40.219 37.482 40.1899 37.3408 40.1899C37.1995 40.1899 37.0597 40.219 36.9301 40.2753C36.8005 40.3316 36.6839 40.4139 36.5874 40.5172C36.3489 40.7721 36.0219 40.9261 35.6735 40.9479C35.325 40.9697 34.9815 40.8574 34.7131 40.6342C34.5289 40.4807 34.2968 40.3967 34.0571 40.3966C33.8174 40.3966 33.5853 40.4806 33.4012 40.6341C33.1246 40.8643 32.7683 40.9762 32.4097 40.9456C32.0512 40.915 31.7191 40.7443 31.4855 40.4705C31.389 40.3579 31.2525 40.2874 31.1049 40.2738C30.9572 40.2603 30.8102 40.3048 30.6948 40.398C30.5795 40.4911 30.505 40.6255 30.4872 40.7727C30.4693 40.9199 30.5096 41.0682 30.5993 41.1862C30.7868 41.4325 30.8852 41.735 30.8785 42.0445C30.8718 42.3539 30.7603 42.6519 30.5623 42.8899C30.4089 43.074 30.3249 43.3061 30.3249 43.5458C30.3249 43.7855 30.4089 44.0176 30.5623 44.2017C30.7668 44.4474 30.8788 44.757 30.8788 45.0766C30.8788 45.3963 30.7668 45.7059 30.5623 45.9516C30.4089 46.1357 30.3249 46.3678 30.3249 46.6075C30.3249 46.8472 30.4089 47.0793 30.5623 47.2634C30.7681 47.5084 30.8802 47.8185 30.8787 48.1384C30.8786 48.458 30.7667 48.7676 30.5623 49.0133C30.4089 49.1975 30.3249 49.4296 30.3249 49.6693C30.3249 49.9089 30.4089 50.141 30.5623 50.3252C30.7372 50.5357 30.845 50.7938 30.8718 51.0661C30.8987 51.3385 30.8433 51.6126 30.7128 51.8532C30.5824 52.0938 30.3829 52.2898 30.14 52.4159C29.8971 52.542 29.622 52.5925 29.3502 52.5608ZM33.1988 55.0729C32.6724 55.0722 32.1632 54.8853 31.7614 54.5452C31.3596 54.2052 31.091 53.734 31.0032 53.215C31.0647 53.1695 31.1247 53.1215 31.1822 53.0701C31.6544 52.6477 31.9493 52.0623 32.0076 51.4315C32.066 50.8006 31.8835 50.1711 31.4968 49.6693C31.7374 49.3559 31.9007 48.9901 31.9733 48.6017H40.4953V47.4621H31.9233C31.8372 47.1525 31.6924 46.8624 31.4968 46.6075C31.835 46.1688 32.0184 45.6305 32.0184 45.0766C32.0184 44.5227 31.835 43.9844 31.4968 43.5457C31.8298 43.1132 32.0129 42.584 32.0183 42.0382C32.3719 42.1112 32.7372 42.1071 33.089 42.026C33.4409 41.9449 33.7711 41.7889 34.0571 41.5685C34.5358 41.9374 35.1315 42.1211 35.7349 42.0858C36.3382 42.0504 36.9084 41.7984 37.3407 41.3761C37.773 41.7984 38.3433 42.0504 38.9466 42.0858C39.5499 42.1211 40.1457 41.9374 40.6244 41.5685C40.907 41.7859 41.2327 41.9407 41.5798 42.0227C41.9268 42.1046 42.2873 42.1119 42.6374 42.044C42.6441 42.5878 42.827 43.1148 43.1588 43.5457C43.1313 43.5814 43.1065 43.6187 43.0811 43.6557H34.5043V44.7952H42.6551C42.5766 45.4422 42.7577 46.0939 43.1588 46.6075C42.8198 47.0473 42.6364 47.5871 42.6372 48.1423C42.6381 48.6976 42.8232 49.2368 43.1636 49.6755C42.8227 50.1155 42.6376 50.6561 42.6372 51.2127C42.6372 51.2307 42.6391 51.2485 42.6395 51.2665H34.5043V52.406H42.94C43.0037 52.5242 43.0769 52.6371 43.1588 52.7435C42.8686 53.1204 42.6914 53.572 42.6477 54.0456C42.2883 53.9744 41.9177 53.9825 41.5618 54.0695C41.2059 54.1565 40.8733 54.3202 40.5873 54.5492C40.3191 54.3341 40.0095 54.1765 39.6778 54.086C39.3461 53.9956 38.9994 53.9742 38.6591 54.0233C38.3188 54.0725 37.9922 54.1909 37.6997 54.3715C37.4071 54.552 37.1547 54.7908 36.9582 55.0729L33.1988 55.0729ZM46.1994 44.2017C46.4039 44.4474 46.5158 44.7569 46.5158 45.0766C46.5158 45.3963 46.4039 45.7059 46.1994 45.9516C46.046 46.1357 45.9619 46.3678 45.9619 46.6075C45.9619 46.8472 46.046 47.0793 46.1994 47.2634C46.4035 47.5088 46.5155 47.8178 46.5158 48.1369C46.5162 48.4561 46.4049 48.7653 46.2013 49.0111C46.0465 49.198 45.9618 49.4329 45.9618 49.6755C45.9618 49.9182 46.0465 50.1532 46.2013 50.34C46.4049 50.5858 46.5162 50.895 46.5158 51.2142C46.5155 51.5333 46.4035 51.8423 46.1994 52.0877C46.0459 52.2718 45.9619 52.5039 45.9619 52.7436C45.9619 52.9833 46.0459 53.2154 46.1994 53.3995C46.3918 53.6307 46.5027 53.919 46.5147 54.2195C46.5268 54.5201 46.4394 54.8163 46.2661 55.0622C46.1983 55.1583 46.1619 55.273 46.1619 55.3906C46.1619 55.5082 46.1983 55.623 46.2661 55.719C46.4512 55.98 46.5381 56.298 46.5116 56.6169C46.4897 56.8886 46.3871 57.1477 46.2171 57.3608C46.0471 57.574 45.8174 57.7315 45.5573 57.8133C45.2972 57.8951 45.0186 57.8974 44.7572 57.8199C44.4958 57.7425 44.2635 57.5887 44.09 57.3784C44.0365 57.3137 43.9694 57.2616 43.8935 57.2259C43.8175 57.1902 43.7347 57.1716 43.6507 57.1716C43.5668 57.1716 43.4839 57.1902 43.408 57.2259C43.3321 57.2616 43.265 57.3137 43.2115 57.3784C43.0898 57.526 42.9386 57.6465 42.7675 57.732C42.5964 57.8175 42.4093 57.8662 42.2182 57.8749C42.0271 57.8836 41.8364 57.8521 41.6582 57.7825C41.4801 57.7129 41.3185 57.6067 41.1839 57.4708C41.089 57.3752 40.9634 57.3163 40.8292 57.3045C40.6951 57.2928 40.5611 57.3289 40.451 57.4065C40.341 57.4842 40.262 57.5983 40.2281 57.7286C40.1942 57.8589 40.2075 57.9971 40.2657 58.1185C40.3547 58.3038 40.4006 58.5068 40.4 58.7123C40.4001 58.9943 40.3135 59.2695 40.1519 59.5006C39.9903 59.7317 39.7615 59.9075 39.4966 60.0042C39.2318 60.101 38.9435 60.1139 38.671 60.0414C38.3985 59.9688 38.155 59.8142 37.9733 59.5985C37.956 59.5781 37.9374 59.559 37.9175 59.5412C37.7574 59.3252 37.665 59.0666 37.6522 58.7981L37.6508 58.7684C37.6505 58.7561 37.6499 58.7439 37.6488 58.7275C37.6492 58.7194 37.6494 58.7111 37.6495 58.7023C37.6497 58.6736 37.6511 58.6452 37.6529 58.6192L37.6536 58.609C37.6715 58.3663 37.7537 58.1327 37.8919 57.9324C37.9577 57.8371 37.9929 57.7241 37.9928 57.6083C37.9927 57.4925 37.9574 57.3795 37.8914 57.2843C37.7109 57.0248 37.6265 56.7104 37.6529 56.3954C37.6756 56.1165 37.7831 55.8514 37.961 55.6355C38.139 55.4197 38.3787 55.2635 38.6481 55.188C38.9174 55.1125 39.2034 55.1213 39.4676 55.2132C39.7318 55.3051 39.9615 55.4757 40.1259 55.7021C40.1787 55.7748 40.248 55.8339 40.3281 55.8746C40.4081 55.9154 40.4967 55.9366 40.5865 55.9366C40.6764 55.9366 40.7649 55.9154 40.845 55.8746C40.925 55.8339 40.9943 55.7748 41.0472 55.7021C41.1745 55.5275 41.3412 55.3854 41.5337 55.2872C41.7262 55.1891 41.9391 55.1376 42.1552 55.1371C42.4567 55.1363 42.7498 55.2358 42.9883 55.42C43.0868 55.4957 43.2073 55.537 43.3314 55.5379C43.4556 55.5387 43.5766 55.499 43.6761 55.4247C43.7756 55.3505 43.8481 55.2458 43.8826 55.1265C43.9172 55.0073 43.9118 54.88 43.8673 54.7641C43.7803 54.537 43.7554 54.2909 43.7951 54.0511C43.8348 53.8112 43.9377 53.5863 44.0932 53.3994C44.2466 53.2153 44.3307 52.9832 44.3307 52.7435C44.3307 52.5038 44.2466 52.2717 44.0932 52.0876C43.889 51.8422 43.7771 51.5332 43.7767 51.2141C43.7764 50.8949 43.8877 50.5856 44.0913 50.3399C44.2461 50.153 44.3308 49.918 44.3308 49.6754C44.3308 49.4328 44.2461 49.1978 44.0913 49.011C43.8877 48.7652 43.7764 48.456 43.7767 48.1368C43.7771 47.8176 43.889 47.5086 44.0932 47.2633C44.2466 47.0792 44.3307 46.8471 44.3307 46.6074C44.3307 46.3677 44.2466 46.1356 44.0932 45.9515C43.8887 45.7058 43.7767 45.3962 43.7767 45.0765C43.7767 44.7569 43.8887 44.4473 44.0932 44.2016C44.2467 44.0175 44.3307 43.7854 44.3307 43.5457C44.3307 43.306 44.2467 43.0739 44.0932 42.8898C43.9334 42.6981 43.8293 42.4663 43.792 42.2196C43.7548 41.9729 43.7859 41.7207 43.882 41.4904C44.4568 42.2261 45.1764 42.836 45.9963 43.2825C45.9542 43.4408 45.9507 43.6069 45.986 43.7668C46.0213 43.9267 46.0945 44.0759 46.1994 44.2017ZM43.5819 37.3213C43.5819 36.2059 43.9127 35.1156 44.5323 34.1883C45.152 33.2609 46.0327 32.5381 47.0631 32.1113C48.0936 31.6844 49.2275 31.5728 50.3214 31.7904C51.4153 32.0079 52.4201 32.545 53.2088 33.3337C53.9974 34.1224 54.5345 35.1272 54.7521 36.2211C54.9697 37.315 54.858 38.4489 54.4312 39.4793C54.0044 40.5098 53.2816 41.3905 52.3542 42.0102C51.4268 42.6298 50.3365 42.9605 49.2212 42.9605C47.7261 42.9589 46.2927 42.3642 45.2355 41.307C44.1783 40.2498 43.5836 38.8164 43.5819 37.3213Z" fill="#FDF8E5" stroke="#3A643C" stroke-width="2" mask="url(#path-10-inside-1_26_7328)"/>
<path d="M53.188 37.8203C53.0766 38.6962 52.6793 39.5165 52.0483 40.1475C51.4174 40.7784 50.597 41.1747 49.7212 41.2861V41.1455C50.56 41.0352 51.345 40.6536 51.9497 40.0488C52.5545 39.444 52.937 38.6592 53.0474 37.8203H53.188Z" fill="#FDF8E5" stroke="#3A643C"/>
</svg>
