<svg width="90" height="87" viewBox="0 0 90 87" fill="none" xmlns="http://www.w3.org/2000/svg">
<g clip-path="url(#clip0_26_7356)">
<rect x="2" width="84" height="84" rx="42" fill="white"/>
<path d="M44 74C61.6731 74 76 59.6731 76 42C76 24.3269 61.6731 10 44 10C26.3269 10 12 24.3269 12 42C12 59.6731 26.3269 74 44 74Z" fill="#E0E8E2"/>
<path d="M36.1248 36.0527C36.1072 35.6567 36.1689 35.2999 36.2996 34.9873L36.3005 34.9863C36.6435 34.1628 37.4436 33.6778 38.1414 33.3916C38.1576 33.6456 38.1337 33.9487 38.0154 34.2773C37.7668 34.9672 37.1613 35.6307 36.1248 36.2305V36.0527Z" fill="#FDF8E5" stroke="#3A643C"/>
<path d="M41.7175 36.7695C41.8484 36.7696 42.1076 36.8723 42.4763 37.1553C42.5335 37.1992 42.5895 37.2483 42.6472 37.2969C42.1815 37.3292 41.7337 37.4 41.3054 37.5127C41.4998 36.7933 41.7281 36.7608 41.6833 36.7734L41.6843 36.7725C41.688 36.7714 41.6983 36.7695 41.7175 36.7695Z" fill="#FDF8E5" stroke="#3A643C"/>
<path d="M46.1025 31.4844C47.0638 31.4844 47.9047 32.1599 48.1279 33.0811L48.164 33.2686C48.2033 33.5362 48.3615 33.7735 48.5966 33.9121V33.9131C48.8309 34.0515 49.1162 34.0761 49.371 33.9795L49.3701 33.9785L50.6855 33.4834C51.5868 33.1435 52.4583 33.0126 53.2773 33.0801C53.4215 33.0919 53.5661 33.1078 53.7128 33.1279H53.7158C54.0954 33.178 54.4262 33.302 54.706 33.4893C55.2688 33.8662 55.6308 34.557 55.6308 35.3633V38.9082C55.6309 39.133 55.7147 39.3497 55.8671 39.5156V39.5166C56.2138 39.8934 56.4052 40.3815 56.4052 40.8936C56.4052 41.325 56.2712 41.7356 56.0175 42.085C55.8393 42.3302 55.7965 42.6495 55.9052 42.9336C55.9886 43.1525 56.0302 43.3759 56.0302 43.5986C56.0302 43.867 55.9725 44.1284 55.8583 44.377V44.3779C55.7423 44.6321 55.7498 44.9284 55.8847 45.1777V45.1787C56.0267 45.4412 56.0966 45.7141 56.0966 45.9932C56.0966 46.6199 55.7564 47.1971 55.2109 47.499H55.2099C54.9253 47.6571 54.747 47.9576 54.747 48.2852V50.0723C54.747 50.2816 54.5774 50.4482 54.3749 50.4482C54.1666 50.4482 53.998 50.2788 53.998 50.0723V48.2812C53.998 47.955 53.821 47.6546 53.537 47.4961H53.5361C52.9909 47.1921 52.6523 46.6159 52.6523 45.9932C52.6523 45.8218 52.6795 45.6433 52.7372 45.4639C52.8236 45.1958 52.7804 44.9029 52.6191 44.6729H52.6181C52.3951 44.3543 52.2783 43.9833 52.2783 43.5986C52.2783 43.2737 52.3654 42.9485 52.5322 42.6602C52.6647 42.4309 52.6891 42.1568 52.6015 41.9102L52.5576 41.8057C52.4128 41.5182 52.3398 41.2128 52.3398 40.8936C52.3398 40.4718 52.4658 40.0698 52.706 39.7295L52.707 39.7305C52.8896 39.4728 52.9213 39.1414 52.7997 38.8574L52.7382 38.7393L52.6611 38.6318C52.4638 38.3974 52.155 38.2731 51.8388 38.3223C49.5467 38.6699 47.8347 38.5197 46.5517 37.9316H46.5527C46.1465 37.7452 45.7258 37.6038 45.2997 37.5049C45.0152 37.1356 44.4947 36.5036 43.8671 35.9697C43.5053 35.6619 43.0898 35.37 42.6484 35.1836C42.2614 35.0202 41.8272 34.9275 41.3847 35.0029L41.1943 35.0459C40.5841 35.2184 40.146 35.6652 39.8505 36.2822C39.5848 36.8373 39.4208 37.5568 39.3349 38.4209C39.3037 38.4426 39.2714 38.4623 39.2411 38.4844C38.84 38.7762 38.7522 39.3374 39.0429 39.7383L39.0439 39.7402C39.2266 39.9903 39.5143 40.1186 39.8027 40.1084C40.1149 40.8544 40.1185 41.4876 39.9941 42.0049C39.8643 42.5441 39.5889 42.9864 39.3212 43.3105L39.207 43.4424C38.9487 43.7282 38.9019 44.1465 39.0888 44.4824V44.4834C39.2732 44.8131 39.6766 45.7086 39.416 46.8262C39.2007 47.7481 38.5598 48.356 38.2568 48.5996L38.0947 48.7197C37.7209 48.9538 37.5718 49.4255 37.7441 49.832V49.8311C37.9165 50.2388 38.3615 50.4612 38.7929 50.3516V50.3525C39.7096 50.12 40.5766 50.1076 41.2734 50.2686C41.9758 50.4308 42.4581 50.7551 42.6962 51.1533C42.8325 51.3816 42.911 51.6717 42.9111 52.0234C42.8963 52.739 42.8865 53.4635 42.8818 54.1963C42.8799 54.5003 42.8808 54.8027 42.8808 55.1035H41.5849L41.5839 53.6855C41.5839 53.5532 41.584 53.4145 41.5761 53.292C41.5684 53.1724 41.5515 53.0263 41.498 52.8867C41.439 52.7333 41.3329 52.581 41.1562 52.4785C40.9922 52.3835 40.8149 52.3594 40.6611 52.3594H40.6435L40.6288 52.3604C40.6289 52.3603 39.9353 52.3993 39.08 52.2168C38.2121 52.0315 37.2517 51.6345 36.6376 50.8184V50.8174C35.7529 49.6414 35.6543 47.7123 36.6171 44.9082C36.679 44.831 36.7312 44.7441 36.7656 44.6475V44.6465C36.8821 44.3148 36.7949 43.9446 36.541 43.7002C36.0825 43.2594 35.509 42.3198 35.9648 40.3789C36.0718 39.926 36.1249 39.4588 36.1249 38.9902V38.249C37.9577 37.4009 39.212 36.2822 39.7138 34.8652C39.9743 34.13 39.9747 33.459 39.8954 32.9365C40.1277 32.9116 40.3559 32.8977 40.5927 32.8848C41.1492 32.854 41.5454 32.9101 42.1005 32.9893H42.1015L42.3437 33.0234H42.3456C42.4691 33.0404 42.5927 33.0806 42.7079 33.1416L42.8203 33.209C43.0461 33.3645 43.3298 33.407 43.5898 33.3281C43.8521 33.2488 44.063 33.0551 44.164 32.8018C44.4829 32.0001 45.2426 31.4844 46.1025 31.4844Z" fill="#FDF8E5" stroke="#3A643C"/>
<mask id="path-6-inside-1_26_7356" fill="white">
<path d="M35.1418 31.9179L32.9547 30.266C32.7797 30.1335 32.5292 30.1683 32.3964 30.3438C32.2638 30.5194 32.2986 30.7694 32.4742 30.9019L34.6613 32.5538C34.7333 32.6082 34.8175 32.6343 34.9012 32.6343C35.0218 32.6343 35.141 32.5796 35.2194 32.476C35.3522 32.3004 35.3174 32.0504 35.1418 31.9179Z"/>
</mask>
<path d="M35.1418 31.9179L32.9547 30.266C32.7797 30.1335 32.5292 30.1683 32.3964 30.3438C32.2638 30.5194 32.2986 30.7694 32.4742 30.9019L34.6613 32.5538C34.7333 32.6082 34.8175 32.6343 34.9012 32.6343C35.0218 32.6343 35.141 32.5796 35.2194 32.476C35.3522 32.3004 35.3174 32.0504 35.1418 31.9179Z" fill="#FDF8E5"/>
<path d="M35.1418 31.9179L34.5391 32.7159L34.5393 32.716L35.1418 31.9179ZM32.9547 30.266L32.351 31.0633L32.352 31.064L32.9547 30.266ZM32.3964 30.3438L31.5989 29.7406L31.5983 29.7413L32.3964 30.3438ZM32.4742 30.9019L33.0769 30.1039L33.0767 30.1038L32.4742 30.9019ZM34.6613 32.5538L35.2646 31.7563L35.264 31.7558L34.6613 32.5538ZM35.2194 32.476L34.4218 31.8727L34.4218 31.8727L35.2194 32.476ZM35.1418 31.9179L35.7445 31.1199L33.5574 29.468L32.9547 30.266L32.352 31.064L34.5391 32.7159L35.1418 31.9179ZM32.9547 30.266L33.5584 29.4688C32.9417 29.0018 32.064 29.1256 31.5989 29.7406L32.3964 30.3438L33.1939 30.9471C32.9944 31.211 32.6177 31.2651 32.351 31.0633L32.9547 30.266ZM32.3964 30.3438L31.5983 29.7413C31.1333 30.3573 31.2549 31.2344 31.8717 31.7L32.4742 30.9019L33.0767 30.1038C33.3423 30.3043 33.3944 30.6815 33.1945 30.9464L32.3964 30.3438ZM32.4742 30.9019L31.8715 31.6999L34.0586 33.3518L34.6613 32.5538L35.264 31.7558L33.0769 30.1039L32.4742 30.9019ZM34.6613 32.5538L34.058 33.3513C34.3106 33.5424 34.6086 33.6343 34.9012 33.6343V32.6343V31.6343C35.0264 31.6343 35.156 31.6741 35.2646 31.7563L34.6613 32.5538ZM34.9012 32.6343V33.6343C35.3224 33.6343 35.742 33.4427 36.0169 33.0792L35.2194 32.476L34.4218 31.8727C34.54 31.7164 34.7211 31.6343 34.9012 31.6343V32.6343ZM35.2194 32.476L36.0169 33.0792C36.483 32.4631 36.3611 31.5854 35.7443 31.1198L35.1418 31.9179L34.5393 32.716C34.2736 32.5154 34.2214 32.1377 34.4218 31.8727L35.2194 32.476Z" fill="#3A643C" mask="url(#path-6-inside-1_26_7356)"/>
<mask id="path-8-inside-2_26_7356" fill="white">
<path d="M46.1521 41.4552L43.965 39.8033C43.7899 39.6705 43.5392 39.7053 43.4066 39.8811C43.2741 40.0567 43.3089 40.3067 43.4845 40.4392L45.6716 42.0911C45.7436 42.1455 45.8278 42.1716 45.9114 42.1716C46.032 42.1716 46.1513 42.1169 46.2296 42.0133C46.3624 41.8374 46.3276 41.5877 46.1521 41.4552Z"/>
</mask>
<path d="M46.1521 41.4552L43.965 39.8033C43.7899 39.6705 43.5392 39.7053 43.4066 39.8811C43.2741 40.0567 43.3089 40.3067 43.4845 40.4392L45.6716 42.0911C45.7436 42.1455 45.8278 42.1716 45.9114 42.1716C46.032 42.1716 46.1513 42.1169 46.2296 42.0133C46.3624 41.8374 46.3276 41.5877 46.1521 41.4552Z" fill="#FDF8E5"/>
<path d="M46.1521 41.4552L45.5494 42.2532L45.5496 42.2533L46.1521 41.4552ZM43.965 39.8033L43.3605 40.6L43.3623 40.6013L43.965 39.8033ZM43.4066 39.8811L44.2048 40.4837L44.2052 40.4831L43.4066 39.8811ZM43.4845 40.4392L44.0872 39.6412L44.087 39.6411L43.4845 40.4392ZM45.6716 42.0911L46.2749 41.2936L46.2743 41.2931L45.6716 42.0911ZM46.2296 42.0133L47.0272 42.6165L47.0276 42.616L46.2296 42.0133ZM46.1521 41.4552L46.7548 40.6572L44.5677 39.0053L43.965 39.8033L43.3623 40.6013L45.5494 42.2532L46.1521 41.4552ZM43.965 39.8033L44.5694 39.0067C43.9528 38.5388 43.0734 38.662 42.6081 39.2792L43.4066 39.8811L44.2052 40.4831C44.005 40.7486 43.627 40.8022 43.3605 40.6L43.965 39.8033ZM43.4066 39.8811L42.6085 39.2786C42.1435 39.8946 42.2652 40.7717 42.882 41.2373L43.4845 40.4392L44.087 39.6411C44.3526 39.8416 44.4047 40.2188 44.2048 40.4837L43.4066 39.8811ZM43.4845 40.4392L42.8818 41.2372L45.0689 42.8891L45.6716 42.0911L46.2743 41.2931L44.0872 39.6412L43.4845 40.4392ZM45.6716 42.0911L45.0683 42.8886C45.3209 43.0797 45.6188 43.1716 45.9114 43.1716V42.1716V41.1716C46.0367 41.1716 46.1662 41.2114 46.2749 41.2936L45.6716 42.0911ZM45.9114 42.1716V43.1716C46.3326 43.1716 46.7523 42.98 47.0272 42.6165L46.2296 42.0133L45.4321 41.41C45.5503 41.2538 45.7314 41.1716 45.9114 41.1716V42.1716ZM46.2296 42.0133L47.0276 42.616C47.4928 42 47.3717 41.1229 46.7546 40.6571L46.1521 41.4552L45.5496 42.2533C45.2836 42.0526 45.232 41.6749 45.4317 41.4106L46.2296 42.0133Z" fill="#3A643C" mask="url(#path-8-inside-2_26_7356)"/>
<mask id="path-10-inside-3_26_7356" fill="white">
<path d="M42.774 41.2366C42.6693 41.0427 42.4274 40.9707 42.234 41.0754C42.0404 41.1798 41.9681 41.4215 42.0728 41.6151L43.3743 44.0269C43.4463 44.1603 43.5836 44.2362 43.7252 44.2362C43.7892 44.2362 43.854 44.2208 43.9143 44.1882C44.1079 44.0838 44.1802 43.8421 44.0755 43.6484L42.774 41.2366Z"/>
</mask>
<path d="M42.774 41.2366C42.6693 41.0427 42.4274 40.9707 42.234 41.0754C42.0404 41.1798 41.9681 41.4215 42.0728 41.6151L43.3743 44.0269C43.4463 44.1603 43.5836 44.2362 43.7252 44.2362C43.7892 44.2362 43.854 44.2208 43.9143 44.1882C44.1079 44.0838 44.1802 43.8421 44.0755 43.6484L42.774 41.2366Z" fill="#FDF8E5"/>
<path d="M42.774 41.2366L43.654 40.7617L43.654 40.7616L42.774 41.2366ZM42.234 41.0754L42.7085 41.9556L42.71 41.9548L42.234 41.0754ZM42.0728 41.6151L42.9528 41.1402L42.9525 41.1396L42.0728 41.6151ZM43.3743 44.0269L42.4943 44.5018L42.4943 44.502L43.3743 44.0269ZM43.9143 44.1882L43.4398 43.3079L43.4379 43.3089L43.9143 44.1882ZM44.0755 43.6484L43.1955 44.1233L43.1958 44.1239L44.0755 43.6484ZM42.774 41.2366L43.654 40.7616C43.2868 40.0812 42.4374 39.8282 41.758 40.1959L42.234 41.0754L42.71 41.9548C42.4173 42.1132 42.0519 42.0042 41.894 41.7116L42.774 41.2366ZM42.234 41.0754L41.7595 40.1951C41.0791 40.5619 40.8257 41.4109 41.193 42.0906L42.0728 41.6151L42.9525 41.1396C43.1105 41.4321 43.0016 41.7976 42.7085 41.9556L42.234 41.0754ZM42.0728 41.6151L41.1927 42.09L42.4943 44.5018L43.3743 44.0269L44.2543 43.552L42.9528 41.1402L42.0728 41.6151ZM43.3743 44.0269L42.4943 44.502C42.7475 44.971 43.2303 45.2362 43.7252 45.2362V44.2362V43.2362C43.9369 43.2362 44.145 43.3495 44.2543 43.5519L43.3743 44.0269ZM43.7252 44.2362V45.2362C43.951 45.2362 44.1802 45.1815 44.3907 45.0674L43.9143 44.1882L43.4379 43.3089C43.5278 43.2602 43.6274 43.2362 43.7252 43.2362V44.2362ZM43.9143 44.1882L44.3888 45.0684C45.0691 44.7016 45.3226 43.8527 44.9553 43.173L44.0755 43.6484L43.1958 44.1239C43.0377 43.8315 43.1467 43.4659 43.4398 43.3079L43.9143 44.1882ZM44.0755 43.6484L44.9556 43.1735L43.654 40.7617L42.774 41.2366L41.894 41.7115L43.1955 44.1233L44.0755 43.6484Z" fill="#3A643C" mask="url(#path-10-inside-3_26_7356)"/>
<mask id="path-12-inside-4_26_7356" fill="white">
<path d="M33.919 35.01L31.2872 35.7758C31.0758 35.8371 30.9544 36.0584 31.016 36.2695C31.0665 36.4438 31.2259 36.5569 31.3983 36.5569C31.4352 36.5569 31.4726 36.5516 31.5098 36.541L34.1416 35.7752C34.353 35.7139 34.4744 35.4926 34.4128 35.2814C34.3514 35.0698 34.1299 34.9489 33.919 35.01Z"/>
</mask>
<path d="M33.919 35.01L31.2872 35.7758C31.0758 35.8371 30.9544 36.0584 31.016 36.2695C31.0665 36.4438 31.2259 36.5569 31.3983 36.5569C31.4352 36.5569 31.4726 36.5516 31.5098 36.541L34.1416 35.7752C34.353 35.7139 34.4744 35.4926 34.4128 35.2814C34.3514 35.0698 34.1299 34.9489 33.919 35.01Z" fill="#FDF8E5"/>
<path d="M33.919 35.01L33.6407 34.0495L33.6396 34.0498L33.919 35.01ZM31.2872 35.7758L31.5659 36.7361L31.5666 36.7359L31.2872 35.7758ZM31.016 36.2695L31.9766 35.9913L31.976 35.9894L31.016 36.2695ZM31.5098 36.541L31.7845 37.5025L31.7892 37.5012L31.5098 36.541ZM34.1416 35.7752L33.8629 34.8149L33.8622 34.8151L34.1416 35.7752ZM34.4128 35.2814L33.4523 35.5598L33.4528 35.5616L34.4128 35.2814ZM33.919 35.01L33.6396 34.0498L31.0078 34.8156L31.2872 35.7758L31.5666 36.7359L34.1984 35.9702L33.919 35.01ZM31.2872 35.7758L31.0085 34.8154C30.2659 35.0309 29.8396 35.808 30.0561 36.5497L31.016 36.2695L31.976 35.9894C32.0692 36.3088 31.8857 36.6434 31.5659 36.7361L31.2872 35.7758ZM31.016 36.2695L30.0555 36.5477C30.2333 37.1617 30.7935 37.5569 31.3983 37.5569V36.5569V35.5569C31.6582 35.5569 31.8997 35.7258 31.9766 35.9913L31.016 36.2695ZM31.3983 36.5569V37.5569C31.5314 37.5569 31.6613 37.5378 31.7845 37.5025L31.5098 36.541L31.2351 35.5795C31.284 35.5655 31.3389 35.5569 31.3983 35.5569V36.5569ZM31.5098 36.541L31.7892 37.5012L34.421 36.7354L34.1416 35.7752L33.8622 34.8151L31.2304 35.5808L31.5098 36.541ZM34.1416 35.7752L34.4203 36.7356C35.1629 36.5201 35.5892 35.743 35.3727 35.0013L34.4128 35.2814L33.4528 35.5616C33.3596 35.2422 33.5431 34.9076 33.8629 34.8149L34.1416 35.7752ZM34.4128 35.2814L35.3732 35.0031C35.1573 34.2579 34.379 33.8356 33.6407 34.0495L33.919 35.01L34.1972 35.9705C33.8808 36.0622 33.5456 35.8816 33.4523 35.5598L34.4128 35.2814Z" fill="#3A643C" mask="url(#path-12-inside-4_26_7356)"/>
<mask id="path-14-inside-5_26_7356" fill="white">
<path d="M36.9003 31.1666C36.9242 31.3692 37.096 31.5185 37.2952 31.5185C37.3109 31.5185 37.3266 31.5177 37.3425 31.5158C37.5609 31.4901 37.7173 31.2922 37.6913 31.0736L37.3707 28.3518C37.3449 28.1332 37.1468 27.977 36.9284 28.0028C36.7101 28.0285 36.5536 28.2264 36.5797 28.445L36.9003 31.1666Z"/>
</mask>
<path d="M36.9003 31.1666C36.9242 31.3692 37.096 31.5185 37.2952 31.5185C37.3109 31.5185 37.3266 31.5177 37.3425 31.5158C37.5609 31.4901 37.7173 31.2922 37.6913 31.0736L37.3707 28.3518C37.3449 28.1332 37.1468 27.977 36.9284 28.0028C36.7101 28.0285 36.5536 28.2264 36.5797 28.445L36.9003 31.1666Z" fill="#FDF8E5"/>
<path d="M36.9003 31.1666L35.9071 31.2836L35.9072 31.2837L36.9003 31.1666ZM37.3425 31.5158L37.4584 32.5091L37.4597 32.509L37.3425 31.5158ZM37.6913 31.0736L36.6982 31.1906L36.6983 31.1918L37.6913 31.0736ZM37.3707 28.3518L38.3638 28.2348L38.3638 28.2348L37.3707 28.3518ZM36.5797 28.445L37.5728 28.328L37.5727 28.3268L36.5797 28.445ZM36.9003 31.1666L35.9072 31.2837C35.991 31.9945 36.5938 32.5185 37.2952 32.5185V31.5185V30.5185C37.5983 30.5185 37.8574 30.7439 37.8934 31.0494L36.9003 31.1666ZM37.2952 31.5185V32.5185C37.3452 32.5185 37.3998 32.5159 37.4584 32.5091L37.3425 31.5158L37.2266 30.5226C37.2534 30.5195 37.2767 30.5185 37.2952 30.5185V31.5185ZM37.3425 31.5158L37.4597 32.509C38.2256 32.4186 38.7758 31.7241 38.6843 30.9554L37.6913 31.0736L36.6983 31.1918C36.6588 30.8603 36.8961 30.5616 37.2253 30.5227L37.3425 31.5158ZM37.6913 31.0736L38.6844 30.9566L38.3638 28.2348L37.3707 28.3518L36.3776 28.4688L36.6982 31.1906L37.6913 31.0736ZM37.3707 28.3518L38.3638 28.2348C38.2734 27.4675 37.578 26.9192 36.8112 27.0097L36.9284 28.0028L37.0456 28.9959C36.7156 29.0348 36.4165 28.7989 36.3776 28.4689L37.3707 28.3518ZM36.9284 28.0028L36.8112 27.0097C36.0454 27.1 35.4951 27.7945 35.5867 28.5633L36.5797 28.445L37.5727 28.3268C37.6121 28.6584 37.3748 28.957 37.0456 28.9959L36.9284 28.0028ZM36.5797 28.445L35.5865 28.562L35.9071 31.2836L36.9003 31.1666L37.8934 31.0496L37.5728 28.328L36.5797 28.445Z" fill="#3A643C" mask="url(#path-14-inside-5_26_7356)"/>
</g>
<defs>
<clipPath id="clip0_26_7356">
<rect width="90" height="87" fill="white"/>
</clipPath>
</defs>
</svg>
